{
	"asset":{
		"version":"2.0",
		"generator":"Created using the official Cinema 4D glTF Exporter 1.000x290161"
	},
	"scenes":[{
		"nodes":[0]
	}],
	"nodes":[{
		"name":"Worm",
		"translation":[0,
		-20,
		0],
		"rotation":[0,
		0,
		0.087,
		0.996],
		"scale":[1,
		1,
		1],
		"mesh":0
	}],
	"meshes":[{
		"primitives":[{
			"targets":[{
				"POSITION":4
			},
			{
				"POSITION":5
			},
			{
				"POSITION":6
			},
			{
				"POSITION":7
			},
			{
				"POSITION":8
			},
			{
				"POSITION":9
			},
			{
				"POSITION":10
			},
			{
				"POSITION":11
			},
			{
				"POSITION":12
			},
			{
				"POSITION":13
			},
			{
				"POSITION":14
			},
			{
				"POSITION":15
			},
			{
				"POSITION":16
			},
			{
				"POSITION":17
			},
			{
				"POSITION":18
			},
			{
				"POSITION":19
			},
			{
				"POSITION":20
			},
			{
				"POSITION":21
			},
			{
				"POSITION":22
			},
			{
				"POSITION":23
			},
			{
				"POSITION":24
			},
			{
				"POSITION":25
			},
			{
				"POSITION":26
			},
			{
				"POSITION":27
			},
			{
				"POSITION":28
			},
			{
				"POSITION":29
			},
			{
				"POSITION":30
			},
			{
				"POSITION":31
			},
			{
				"POSITION":32
			},
			{
				"POSITION":33
			},
			{
				"POSITION":34
			}],
			"attributes":{
				"POSITION":1,
				"NORMAL":2,
				"TEXCOORD_0":3
			},
			"indices":0,
			"material":0
		}],
		"weights":[0,
		0,
		0,
		0,
		0,
		0,
		0,
		0,
		0,
		0,
		0,
		0,
		0,
		0,
		0,
		0,
		0,
		0,
		0,
		0,
		0,
		0,
		0,
		0,
		0,
		0,
		0,
		0,
		0,
		0,
		0]
	}],
	"accessors":[{
		"bufferView":0,
		"type":"SCALAR",
		"componentType":5123,
		"count":3816,
		"byteOffset":0,
		"min":[0],
		"max":[683]
	},
	{
		"bufferView":1,
		"type":"VEC3",
		"componentType":5126,
		"count":684,
		"byteOffset":0,
		"min":[-2.709,
		2.042,
		-1.248],
		"max":[12.3,
		12.523,
		1.345]
	},
	{
		"bufferView":1,
		"type":"VEC3",
		"componentType":5126,
		"count":684,
		"byteOffset":12,
		"min":[-0.804,
		-0.974,
		-1],
		"max":[0.984,
		1,
		1]
	},
	{
		"bufferView":1,
		"type":"VEC2",
		"componentType":5126,
		"count":684,
		"byteOffset":24,
		"min":[0.238,
		0.035],
		"max":[0.781,
		0.991]
	},
	{
		"bufferView":2,
		"type":"VEC3",
		"componentType":5126,
		"count":684,
		"byteOffset":0,
		"min":[0,
		0,
		0],
		"max":[0,
		0,
		0]
	},
	{
		"bufferView":3,
		"type":"VEC3",
		"componentType":5126,
		"count":684,
		"byteOffset":0,
		"min":[0,
		-0.028,
		0],
		"max":[0.032,
		0.013,
		0]
	},
	{
		"bufferView":4,
		"type":"VEC3",
		"componentType":5126,
		"count":684,
		"byteOffset":0,
		"min":[-0.002,
		-0.107,
		0],
		"max":[0.121,
		0.051,
		0]
	},
	{
		"bufferView":5,
		"type":"VEC3",
		"componentType":5126,
		"count":684,
		"byteOffset":0,
		"min":[-0.003,
		-0.228,
		-0.001],
		"max":[0.258,
		0.108,
		0]
	},
	{
		"bufferView":6,
		"type":"VEC3",
		"componentType":5126,
		"count":684,
		"byteOffset":0,
		"min":[-0.006,
		-0.385,
		-0.002],
		"max":[0.435,
		0.183,
		0]
	},
	{
		"bufferView":7,
		"type":"VEC3",
		"componentType":5126,
		"count":684,
		"byteOffset":0,
		"min":[-0.009,
		-0.568,
		-0.003],
		"max":[0.644,
		0.27,
		0]
	},
	{
		"bufferView":8,
		"type":"VEC3",
		"componentType":5126,
		"count":684,
		"byteOffset":0,
		"min":[-0.012,
		-0.772,
		-0.003],
		"max":[0.874,
		0.366,
		0]
	},
	{
		"bufferView":9,
		"type":"VEC3",
		"componentType":5126,
		"count":684,
		"byteOffset":0,
		"min":[-0.015,
		-0.987,
		-0.004],
		"max":[1.117,
		0.468,
		0.001]
	},
	{
		"bufferView":10,
		"type":"VEC3",
		"componentType":5126,
		"count":684,
		"byteOffset":0,
		"min":[-0.018,
		-1.206,
		-0.005],
		"max":[1.365,
		0.572,
		0.001]
	},
	{
		"bufferView":11,
		"type":"VEC3",
		"componentType":5126,
		"count":684,
		"byteOffset":0,
		"min":[-0.022,
		-1.421,
		-0.006],
		"max":[1.608,
		0.674,
		0.001]
	},
	{
		"bufferView":12,
		"type":"VEC3",
		"componentType":5126,
		"count":684,
		"byteOffset":0,
		"min":[-0.025,
		-1.624,
		-0.007],
		"max":[1.839,
		0.771,
		0.001]
	},
	{
		"bufferView":13,
		"type":"VEC3",
		"componentType":5126,
		"count":684,
		"byteOffset":0,
		"min":[-0.027,
		-1.808,
		-0.008],
		"max":[2.047,
		0.858,
		0.001]
	},
	{
		"bufferView":14,
		"type":"VEC3",
		"componentType":5126,
		"count":684,
		"byteOffset":0,
		"min":[-0.03,
		-1.965,
		-0.009],
		"max":[2.224,
		0.933,
		0.001]
	},
	{
		"bufferView":15,
		"type":"VEC3",
		"componentType":5126,
		"count":684,
		"byteOffset":0,
		"min":[-0.032,
		-2.086,
		-0.009],
		"max":[2.362,
		0.99,
		0.001]
	},
	{
		"bufferView":16,
		"type":"VEC3",
		"componentType":5126,
		"count":684,
		"byteOffset":0,
		"min":[-0.033,
		-2.165,
		-0.01],
		"max":[2.451,
		1.028,
		0.001]
	},
	{
		"bufferView":17,
		"type":"VEC3",
		"componentType":5126,
		"count":684,
		"byteOffset":0,
		"min":[-0.033,
		-2.193,
		-0.01],
		"max":[2.482,
		1.041,
		0.001]
	},
	{
		"bufferView":18,
		"type":"VEC3",
		"componentType":5126,
		"count":684,
		"byteOffset":0,
		"min":[-0.033,
		-2.165,
		-0.01],
		"max":[2.451,
		1.028,
		0.001]
	},
	{
		"bufferView":19,
		"type":"VEC3",
		"componentType":5126,
		"count":684,
		"byteOffset":0,
		"min":[-0.032,
		-2.086,
		-0.009],
		"max":[2.362,
		0.99,
		0.001]
	},
	{
		"bufferView":20,
		"type":"VEC3",
		"componentType":5126,
		"count":684,
		"byteOffset":0,
		"min":[-0.03,
		-1.965,
		-0.009],
		"max":[2.224,
		0.933,
		0.001]
	},
	{
		"bufferView":21,
		"type":"VEC3",
		"componentType":5126,
		"count":684,
		"byteOffset":0,
		"min":[-0.027,
		-1.808,
		-0.008],
		"max":[2.047,
		0.858,
		0.001]
	},
	{
		"bufferView":22,
		"type":"VEC3",
		"componentType":5126,
		"count":684,
		"byteOffset":0,
		"min":[-0.025,
		-1.624,
		-0.007],
		"max":[1.839,
		0.771,
		0.001]
	},
	{
		"bufferView":23,
		"type":"VEC3",
		"componentType":5126,
		"count":684,
		"byteOffset":0,
		"min":[-0.022,
		-1.421,
		-0.006],
		"max":[1.608,
		0.674,
		0.001]
	},
	{
		"bufferView":24,
		"type":"VEC3",
		"componentType":5126,
		"count":684,
		"byteOffset":0,
		"min":[-0.018,
		-1.206,
		-0.005],
		"max":[1.365,
		0.572,
		0.001]
	},
	{
		"bufferView":25,
		"type":"VEC3",
		"componentType":5126,
		"count":684,
		"byteOffset":0,
		"min":[-0.015,
		-0.987,
		-0.004],
		"max":[1.117,
		0.468,
		0.001]
	},
	{
		"bufferView":26,
		"type":"VEC3",
		"componentType":5126,
		"count":684,
		"byteOffset":0,
		"min":[-0.012,
		-0.772,
		-0.003],
		"max":[0.874,
		0.366,
		0]
	},
	{
		"bufferView":27,
		"type":"VEC3",
		"componentType":5126,
		"count":684,
		"byteOffset":0,
		"min":[-0.009,
		-0.568,
		-0.003],
		"max":[0.644,
		0.27,
		0]
	},
	{
		"bufferView":28,
		"type":"VEC3",
		"componentType":5126,
		"count":684,
		"byteOffset":0,
		"min":[-0.006,
		-0.385,
		-0.002],
		"max":[0.435,
		0.183,
		0]
	},
	{
		"bufferView":29,
		"type":"VEC3",
		"componentType":5126,
		"count":684,
		"byteOffset":0,
		"min":[-0.003,
		-0.228,
		-0.001],
		"max":[0.258,
		0.108,
		0]
	},
	{
		"bufferView":30,
		"type":"VEC3",
		"componentType":5126,
		"count":684,
		"byteOffset":0,
		"min":[-0.002,
		-0.107,
		0],
		"max":[0.121,
		0.051,
		0]
	},
	{
		"bufferView":31,
		"type":"VEC3",
		"componentType":5126,
		"count":684,
		"byteOffset":0,
		"min":[0,
		-0.028,
		0],
		"max":[0.032,
		0.013,
		0]
	},
	{
		"bufferView":32,
		"type":"VEC3",
		"componentType":5126,
		"count":684,
		"byteOffset":0,
		"min":[0,
		0,
		0],
		"max":[0,
		0,
		0]
	},
	{
		"bufferView":33,
		"type":"SCALAR",
		"componentType":5126,
		"count":31,
		"byteOffset":0,
		"min":[0],
		"max":[1.2]
	},
	{
		"bufferView":33,
		"type":"SCALAR",
		"componentType":5126,
		"count":961,
		"byteOffset":124,
		"min":[0],
		"max":[1]
	}],
	"bufferViews":[{
		"buffer":0,
		"byteOffset":0,
		"byteLength":7632,
		"target":34963
	},
	{
		"buffer":0,
		"byteOffset":7632,
		"byteLength":21888,
		"target":34962,
		"byteStride":32
	},
	{
		"buffer":0,
		"byteOffset":29520,
		"byteLength":8208,
		"target":34962
	},
	{
		"buffer":0,
		"byteOffset":37728,
		"byteLength":8208,
		"target":34962
	},
	{
		"buffer":0,
		"byteOffset":45936,
		"byteLength":8208,
		"target":34962
	},
	{
		"buffer":0,
		"byteOffset":54144,
		"byteLength":8208,
		"target":34962
	},
	{
		"buffer":0,
		"byteOffset":62352,
		"byteLength":8208,
		"target":34962
	},
	{
		"buffer":0,
		"byteOffset":70560,
		"byteLength":8208,
		"target":34962
	},
	{
		"buffer":0,
		"byteOffset":78768,
		"byteLength":8208,
		"target":34962
	},
	{
		"buffer":0,
		"byteOffset":86976,
		"byteLength":8208,
		"target":34962
	},
	{
		"buffer":0,
		"byteOffset":95184,
		"byteLength":8208,
		"target":34962
	},
	{
		"buffer":0,
		"byteOffset":103392,
		"byteLength":8208,
		"target":34962
	},
	{
		"buffer":0,
		"byteOffset":111600,
		"byteLength":8208,
		"target":34962
	},
	{
		"buffer":0,
		"byteOffset":119808,
		"byteLength":8208,
		"target":34962
	},
	{
		"buffer":0,
		"byteOffset":128016,
		"byteLength":8208,
		"target":34962
	},
	{
		"buffer":0,
		"byteOffset":136224,
		"byteLength":8208,
		"target":34962
	},
	{
		"buffer":0,
		"byteOffset":144432,
		"byteLength":8208,
		"target":34962
	},
	{
		"buffer":0,
		"byteOffset":152640,
		"byteLength":8208,
		"target":34962
	},
	{
		"buffer":0,
		"byteOffset":160848,
		"byteLength":8208,
		"target":34962
	},
	{
		"buffer":0,
		"byteOffset":169056,
		"byteLength":8208,
		"target":34962
	},
	{
		"buffer":0,
		"byteOffset":177264,
		"byteLength":8208,
		"target":34962
	},
	{
		"buffer":0,
		"byteOffset":185472,
		"byteLength":8208,
		"target":34962
	},
	{
		"buffer":0,
		"byteOffset":193680,
		"byteLength":8208,
		"target":34962
	},
	{
		"buffer":0,
		"byteOffset":201888,
		"byteLength":8208,
		"target":34962
	},
	{
		"buffer":0,
		"byteOffset":210096,
		"byteLength":8208,
		"target":34962
	},
	{
		"buffer":0,
		"byteOffset":218304,
		"byteLength":8208,
		"target":34962
	},
	{
		"buffer":0,
		"byteOffset":226512,
		"byteLength":8208,
		"target":34962
	},
	{
		"buffer":0,
		"byteOffset":234720,
		"byteLength":8208,
		"target":34962
	},
	{
		"buffer":0,
		"byteOffset":242928,
		"byteLength":8208,
		"target":34962
	},
	{
		"buffer":0,
		"byteOffset":251136,
		"byteLength":8208,
		"target":34962
	},
	{
		"buffer":0,
		"byteOffset":259344,
		"byteLength":8208,
		"target":34962
	},
	{
		"buffer":0,
		"byteOffset":267552,
		"byteLength":8208,
		"target":34962
	},
	{
		"buffer":0,
		"byteOffset":275760,
		"byteLength":8208,
		"target":34962
	},
	{
		"buffer":1,
		"byteOffset":0,
		"byteLength":3968
	}],
	"buffers":[{
		"uri":"data:application/octet-stream;base64,",
		"byteLength":283968
	},
	{
		"uri":"data:application/octet-stream;base64,",
		"byteLength":3968
	}],
	"images":[{
		"uri":"data:image/jpeg;base64,"
	}],
	"samplers":[{
		"magFilter":9729,
		"minFilter":9729,
		"wrapS":10497,
		"wrapT":10497
	}],
	"animations":[{
		"samplers":[{
			"input":35,
			"interpolation":"LINEAR",
			"output":36
		}],
		"channels":[{
			"sampler":0,
			"target":{
				"node":0,
				"path":"weights"
			}
		}]
	}],
	"textures":[{
		"sampler":0,
		"source":0
	}],
	"materials":[{
		"pbrMetallicRoughness":{
			"baseColorTexture":{
				"index":0
			},
			"baseColorFactor":[1,
			1,
			1,
			1],
			"metallicFactor":1,
			"roughnessFactor":1
		},
		"emissiveFactor":[0,
		0,
		0],
		"alphaMode":"OPAQUE",
		"doubleSided":true,
		"name":"Mat"
	}]
}