<svg xmlns="http://www.w3.org/2000/svg" xmlns:xlink="http://www.w3.org/1999/xlink" viewBox="0 0 479.76 506.05"><defs><style>.cls-1,.cls-14{fill:none;}.cls-2{clip-path:url(#clip-path);}.cls-3{fill:url(#Sfumatura_senza_nome_133);}.cls-4{fill:url(#Sfumatura_senza_nome_133-2);}.cls-5{fill:url(#Sfumatura_senza_nome_133-3);}.cls-6{fill:url(#Sfumatura_senza_nome_133-4);}.cls-7{fill:url(#Sfumatura_senza_nome_133-5);}.cls-8{fill:url(#Sfumatura_senza_nome_133-6);}.cls-9{fill:url(#Sfumatura_senza_nome_133-7);}.cls-10,.cls-11,.cls-12,.cls-13{fill:#333;}.cls-10,.cls-13{opacity:0.5;}.cls-12,.cls-13{fill-rule:evenodd;}.cls-14{stroke:#666;stroke-miterlimit:10;stroke-width:4px;}.cls-15{fill:url(#Nuovo_pattern_2);}.cls-16{fill:url(#Sfumatura_senza_nome_54);}.cls-17{fill:url(#Sfumatura_senza_nome_54-2);}.cls-18{fill:#fff;}@media (max-width: 90px){.cls-10,.cls-11,.cls-12,.cls-13{fill:#fff;}}</style><clipPath id="clip-path"><rect class="cls-1" width="28" height="23.87"/></clipPath><linearGradient id="Sfumatura_senza_nome_133" x1="180.82" y1="-15196.92" x2="187.23" y2="-15208.02" gradientTransform="matrix(1, 0, 0, -1, -170.01, -15190.51)" gradientUnits="userSpaceOnUse"><stop offset="0" stop-color="#bd0000"/><stop offset="0.12" stop-color="#be0800"/><stop offset="0.31" stop-color="#c01f00"/><stop offset="0.55" stop-color="#c44400"/><stop offset="0.82" stop-color="#c87700"/><stop offset="1" stop-color="#cc9c00"/></linearGradient><linearGradient id="Sfumatura_senza_nome_133-2" x1="194.82" y1="-15196.92" x2="201.23" y2="-15208.02" xlink:href="#Sfumatura_senza_nome_133"/><linearGradient id="Sfumatura_senza_nome_133-3" x1="173.82" y1="-15208.85" x2="180.23" y2="-15219.95" xlink:href="#Sfumatura_senza_nome_133"/><linearGradient id="Sfumatura_senza_nome_133-4" x1="187.82" y1="-15208.85" x2="194.23" y2="-15219.95" xlink:href="#Sfumatura_senza_nome_133"/><linearGradient id="Sfumatura_senza_nome_133-5" x1="173.82" y1="-15184.98" x2="180.23" y2="-15196.09" xlink:href="#Sfumatura_senza_nome_133"/><linearGradient id="Sfumatura_senza_nome_133-6" x1="187.82" y1="-15184.98" x2="194.23" y2="-15196.09" xlink:href="#Sfumatura_senza_nome_133"/><linearGradient id="Sfumatura_senza_nome_133-7" x1="166.82" y1="-15196.92" x2="173.23" y2="-15208.02" xlink:href="#Sfumatura_senza_nome_133"/><pattern id="Nuovo_pattern_2" data-name="Nuovo pattern 2" width="28" height="23.87" patternTransform="translate(4.46 1.88)" patternUnits="userSpaceOnUse" viewBox="0 0 28 23.87"><rect class="cls-1" width="28" height="23.87"/><g class="cls-2"><polygon class="cls-3" points="7.6 8.26 7.6 15.66 14.01 19.36 20.42 15.66 20.42 8.26 14.01 4.56 7.6 8.26"/><polygon class="cls-4" points="21.61 8.26 21.61 15.66 28.01 19.36 34.42 15.66 34.42 8.26 28.01 4.56 21.61 8.26"/><polygon class="cls-5" points="0.6 20.19 0.6 27.59 7.01 31.29 13.42 27.59 13.42 20.19 7.01 16.49 0.6 20.19"/><polygon class="cls-6" points="14.6 20.19 14.6 27.59 21.01 31.29 27.42 27.59 27.42 20.19 21.01 16.49 14.6 20.19"/><polygon class="cls-7" points="0.6 -3.67 0.6 3.73 7.01 7.43 13.42 3.73 13.42 -3.67 7.01 -7.37 0.6 -3.67"/><polygon class="cls-8" points="14.6 -3.67 14.6 3.73 21.01 7.43 27.42 3.73 27.42 -3.67 21.01 -7.37 14.6 -3.67"/><polygon class="cls-9" points="-6.4 8.26 -6.4 15.66 0.01 19.36 6.42 15.66 6.42 8.26 0.01 4.56 -6.4 8.26"/></g></pattern><radialGradient id="Sfumatura_senza_nome_54" cx="1082.95" cy="530.73" fx="960.395846859606" fy="560.8864473596341" r="159.51" gradientTransform="matrix(-1, 0, 0, 1.03, 1932.46, -14.51)" gradientUnits="userSpaceOnUse"><stop offset="0" stop-color="#6a0000" stop-opacity="0.7"/><stop offset="0.15" stop-color="#5b0000" stop-opacity="0.72"/><stop offset="0.41" stop-color="#340000" stop-opacity="0.77"/><stop offset="0.51" stop-color="#200" stop-opacity="0.79"/><stop offset="0.82"/></radialGradient><radialGradient id="Sfumatura_senza_nome_54-2" cx="1088.25" cy="530.73" fx="965.6982024020626" fy="560.8862715380989" r="159.51" gradientTransform="translate(0 -14.51) scale(1 1.03)" xlink:href="#Sfumatura_senza_nome_54"/></defs><title>logo</title><g id="Nasp"><path id="Naso" class="cls-10" d="M942.05,733.67s-3,27,28.47,26.37,77.88-1.14,89.45,0c5.09.48,7.23,12.28,15,17,8.14,4.92,17.41-.93,21-9,4-9-1.29-22.29-1-29,.22-5.24,4-11.29,3-21-2.78-27.44-26-20.86-31-11-1.76,3.5-3.8,8.73-7,10-2.65,1-8,1-12,1-6.08,0-10.78-.25-23,0-15.61.32-22.69,0-25.08-2.77A12.69,12.69,0,0,1,997,707c0-12.1-1.62-49.9,0-95,.07-1.87-20.21-19.66-20.5-21.52-2.18-13.93-3.29-40.53-7-77.48l-.17,2.84c-.81,31.55-7.58,63.8-7.55,75.51l-19.79,21Z" transform="translate(-729 -272.76)"/><path class="cls-11" d="M1027,765" transform="translate(-729 -272.76)"/></g><g id="Ala2"><path id="Interno" class="cls-12" d="M1021.79,369.88l-1.81-1.81-27.14-34.38-1.21,1.81,29.56,36.19.6-1.81Zm0,6,41-1.2,2.42-1.81-42.83,1.2,19.3-42.22,1.21-1.81h0l57.9,6.64,1.81-1.81L1044.18,329l62.65-44.14-1.81-1.21-62.91,45.13L1043.5,283l-1.81,1.21-1.2,44.63h0l-1.21,3.62-.6,1.2-16.89,36.19-.6,1.81-1.81,3h0l-45.24,32,1.21,1.81" transform="translate(-729 -272.76)"/><path id="Esterno" class="cls-13" d="M1007.25,407.77c61.69-24.31,130.22-95,102.5-120.45-78.3-72-202.53,159.87-102.5,120.45Z" transform="translate(-729 -272.76)"/></g><g id="Ala1"><path id="Esterno-2" data-name="Esterno" class="cls-13" d="M829.12,286.72c-27.71,25.48,40.82,96.14,102.51,120.45C1031.66,446.59,907.43,214.73,829.12,286.72Z" transform="translate(-729 -272.76)"/><polygon id="Interno-2" data-name="Interno" class="cls-12" points="190.5 101.35 188.69 98.33 218.25 62.14 217.04 60.33 189.9 94.71 188.09 96.52 171.2 60.33 170.6 59.13 169.39 55.51 168.18 10.88 166.38 9.67 167.76 55.4 104.85 10.27 103.05 11.48 165.7 55.62 107.27 61.54 109.08 63.35 166.98 56.71 168.18 58.52 187.49 100.74 144.66 99.54 147.07 101.35 188.09 102.55 234.53 135.12 235.74 133.31 190.5 101.35"/></g><g id="OcchiExternal"><g id="OcchioCazzodx"><path d="M941.5,392a41.52,41.52,0,0,1,10,7.43,45.62,45.62,0,0,1,10.07,16.33c1.84,4.66,3.05,9.38,4.23,18.46A219.14,219.14,0,0,1,967.63,462c.18,36,.49,26.84.35,41.49-.19,19-.73,37.38-1.18,48.78-.22,5.92-.41,9.62-.59,16.62-.06,2.23-.33,13.29-.54,19.84a39.37,39.37,0,0,1-6.26,20.17c-2.68,4.06-4.92,7-6.26,8.8-.95,1.25-2.53,3.29-4.56,5.75-3,3.66-5.58,6.48-7.16,8.18-2.64,2.83-4.8,5-5.88,6-3.07,3-5.7,5.34-7.48,6.88-3.88,3.36-7.06,5.8-8.59,7-2.89,2.19-5.27,3.83-6.63,4.76-2.79,1.89-5,3.28-6.13,3.95-2.58,1.59-4.91,2.91-6.88,4-4.38,2.38-7.94,4-9.79,4.87-1.56.7-4,1.77-7,3,0,0-3.5,1.37-7.09,2.57-11.23,3.76-22,7.37-33.89,7-4.7-.17-9.92-.94-9.92-.94-1-.14-4.33-.65-8.87-1.74a115.41,115.41,0,0,1-30.3-12,111.85,111.85,0,0,1-19-13.64,115.68,115.68,0,0,1-11.6-12.05,104.53,104.53,0,0,1-13.3-19.6,110.14,110.14,0,0,1-7.2-18,183.71,183.71,0,0,1-6-24.34,262.71,262.71,0,0,1-3.88-26.68c-.88-10-.92-17.49-.93-19.18a180.84,180.84,0,0,1,1.24-23.17,150.14,150.14,0,0,1,5.81-28.15,143.53,143.53,0,0,1,7.65-19.47,148.1,148.1,0,0,1,8.92-15.82,172.49,172.49,0,0,1,10.77-15.19c2-2.55,5.05-6.17,8.94-10.3,4.95-5.27,9.11-9,10.87-10.55,4.41-3.89,8-6.63,9.45-7.71a143.18,143.18,0,0,1,13.17-8.8c6.53-3.85,11.55-6.81,18.72-9.11,4.92-1.58,8.7-2.12,16.26-3.18a201.49,201.49,0,0,1,21.83-1.78c12.1-.48,21.1,0,23.08.09,9.53.51,16.76,1.49,19.59,1.89,16.92,2.42,25,5.64,27.16,6.56C937.48,390,939.89,391.16,941.5,392Z" transform="translate(-729 -272.76)"/><path class="cls-14" d="M941.5,392a41.52,41.52,0,0,1,10,7.43,45.62,45.62,0,0,1,10.07,16.33c1.84,4.66,3.05,9.38,4.23,18.46A219.14,219.14,0,0,1,967.63,462c.18,36,.49,26.84.35,41.49-.19,19-.73,37.38-1.18,48.78-.22,5.92-.41,9.62-.59,16.62-.06,2.23-.33,13.29-.54,19.84a39.37,39.37,0,0,1-6.26,20.17c-2.68,4.06-4.92,7-6.26,8.8-.95,1.25-2.53,3.29-4.56,5.75-3,3.66-5.58,6.48-7.16,8.18-2.64,2.83-4.8,5-5.88,6-3.07,3-5.7,5.34-7.48,6.88-3.88,3.36-7.06,5.8-8.59,7-2.89,2.19-5.27,3.83-6.63,4.76-2.79,1.89-5,3.28-6.13,3.95-2.58,1.59-4.91,2.91-6.88,4-4.38,2.38-7.94,4-9.79,4.87-1.56.7-4,1.77-7,3,0,0-3.5,1.37-7.09,2.57-11.23,3.76-22,7.37-33.89,7-4.7-.17-9.92-.94-9.92-.94-1-.14-4.33-.65-8.87-1.74a115.41,115.41,0,0,1-30.3-12,111.85,111.85,0,0,1-19-13.64,115.68,115.68,0,0,1-11.6-12.05,104.53,104.53,0,0,1-13.3-19.6,110.14,110.14,0,0,1-7.2-18,183.71,183.71,0,0,1-6-24.34,262.71,262.71,0,0,1-3.88-26.68c-.88-10-.92-17.49-.93-19.18a180.84,180.84,0,0,1,1.24-23.17,150.14,150.14,0,0,1,5.81-28.15,143.53,143.53,0,0,1,7.65-19.47,148.1,148.1,0,0,1,8.92-15.82,172.49,172.49,0,0,1,10.77-15.19c2-2.55,5.05-6.17,8.94-10.3,4.95-5.27,9.11-9,10.87-10.55,4.41-3.89,8-6.63,9.45-7.71a143.18,143.18,0,0,1,13.17-8.8c6.53-3.85,11.55-6.81,18.72-9.11,4.92-1.58,8.7-2.12,16.26-3.18a201.49,201.49,0,0,1,21.83-1.78c12.1-.48,21.1,0,23.08.09,9.53.51,16.76,1.49,19.59,1.89,16.92,2.42,25,5.64,27.16,6.56C937.48,390,939.89,391.16,941.5,392Z" transform="translate(-729 -272.76)"/></g><g id="OcchioCazzodx-2" data-name="OcchioCazzodx"><path d="M996.26,392a41.52,41.52,0,0,0-10,7.43,45.62,45.62,0,0,0-10.07,16.33c-1.84,4.65-3.05,9.38-4.23,18.46A217.15,217.15,0,0,0,970.13,462c-.18,36-.49,26.84-.35,41.49.19,19,.73,37.38,1.17,48.78.23,5.92.42,9.62.6,16.62.06,2.23.33,13.29.54,19.84a39.37,39.37,0,0,0,6.26,20.17c2.68,4.06,4.92,7,6.26,8.8.95,1.25,2.52,3.29,4.56,5.75,3,3.66,5.58,6.48,7.16,8.18,2.64,2.83,4.8,5,5.88,6,3.07,3,5.7,5.34,7.48,6.88,3.88,3.36,7.06,5.8,8.59,7,2.89,2.19,5.27,3.83,6.63,4.76,2.79,1.89,5,3.28,6.13,3.95,2.58,1.59,4.91,2.91,6.88,4,4.38,2.38,7.94,4,9.79,4.87,1.56.7,4,1.77,7,3,0,0,3.5,1.37,7.08,2.57,11.24,3.76,22,7.37,33.9,7,4.7-.17,9.92-.94,9.92-.94,1-.14,4.33-.65,8.87-1.74a116,116,0,0,0,17.63-5.74,114.24,114.24,0,0,0,12.66-6.22,111.62,111.62,0,0,0,19-13.64,116.79,116.79,0,0,0,11.6-12.05,104.53,104.53,0,0,0,13.3-19.6,110.14,110.14,0,0,0,7.2-18,185.29,185.29,0,0,0,6-24.34,258.44,258.44,0,0,0,3.87-26.68c.89-10,.93-17.49.94-19.18a180.84,180.84,0,0,0-1.24-23.17,151,151,0,0,0-5.81-28.15,141.86,141.86,0,0,0-7.66-19.47,146.64,146.64,0,0,0-8.91-15.82,172.49,172.49,0,0,0-10.77-15.19c-2-2.55-5-6.17-8.94-10.3-5-5.27-9.11-9-10.87-10.55-4.41-3.89-8-6.63-9.45-7.71a143.18,143.18,0,0,0-13.17-8.8c-6.53-3.85-11.55-6.81-18.72-9.11-4.92-1.59-8.7-2.12-16.26-3.18a201.49,201.49,0,0,0-21.83-1.78c-12.1-.48-21.1,0-23.08.09-9.53.51-16.76,1.49-19.59,1.89-16.92,2.42-25,5.64-27.16,6.56C1000.28,390,997.87,391.16,996.26,392Z" transform="translate(-729 -272.76)"/><path class="cls-14" d="M996.26,392a41.52,41.52,0,0,0-10,7.43,45.62,45.62,0,0,0-10.07,16.33c-1.84,4.65-3.05,9.38-4.23,18.46A217.15,217.15,0,0,0,970.13,462c-.18,36-.49,26.84-.35,41.49.19,19,.73,37.38,1.17,48.78.23,5.92.42,9.62.6,16.62.06,2.23.33,13.29.54,19.84a39.37,39.37,0,0,0,6.26,20.17c2.68,4.06,4.92,7,6.26,8.8.95,1.25,2.52,3.29,4.56,5.75,3,3.66,5.58,6.48,7.16,8.18,2.64,2.83,4.8,5,5.88,6,3.07,3,5.7,5.34,7.48,6.88,3.88,3.36,7.06,5.8,8.59,7,2.89,2.19,5.27,3.83,6.63,4.76,2.79,1.89,5,3.28,6.13,3.95,2.58,1.59,4.91,2.91,6.88,4,4.38,2.38,7.94,4,9.79,4.87,1.56.7,4,1.77,7,3,0,0,3.5,1.37,7.08,2.57,11.24,3.76,22,7.37,33.9,7,4.7-.17,9.92-.94,9.92-.94,1-.14,4.33-.65,8.87-1.74a116,116,0,0,0,17.63-5.74,114.24,114.24,0,0,0,12.66-6.22,111.62,111.62,0,0,0,19-13.64,116.79,116.79,0,0,0,11.6-12.05,104.53,104.53,0,0,0,13.3-19.6,110.14,110.14,0,0,0,7.2-18,185.29,185.29,0,0,0,6-24.34,258.44,258.44,0,0,0,3.87-26.68c.89-10,.93-17.49.94-19.18a180.84,180.84,0,0,0-1.24-23.17,151,151,0,0,0-5.81-28.15,141.86,141.86,0,0,0-7.66-19.47,146.64,146.64,0,0,0-8.91-15.82,172.49,172.49,0,0,0-10.77-15.19c-2-2.55-5-6.17-8.94-10.3-5-5.27-9.11-9-10.87-10.55-4.41-3.89-8-6.63-9.45-7.71a143.18,143.18,0,0,0-13.17-8.8c-6.53-3.85-11.55-6.81-18.72-9.11-4.92-1.59-8.7-2.12-16.26-3.18a201.49,201.49,0,0,0-21.83-1.78c-12.1-.48-21.1,0-23.08.09-9.53.51-16.76,1.49-19.59,1.89-16.92,2.42-25,5.64-27.16,6.56C1000.28,390,997.87,391.16,996.26,392Z" transform="translate(-729 -272.76)"/></g></g><g id="OcchiInternal"><g id="OcchioCazzodx-3" data-name="OcchioCazzodx"><path class="cls-15" d="M941.5,392a41.52,41.52,0,0,1,10,7.43,45.62,45.62,0,0,1,10.07,16.33c1.84,4.66,3.05,9.38,4.23,18.46A219.14,219.14,0,0,1,967.63,462c.18,36,.49,26.84.35,41.49-.19,19-.73,37.38-1.18,48.78-.22,5.92-.41,9.62-.59,16.62-.06,2.23-.33,13.29-.54,19.84a39.37,39.37,0,0,1-6.26,20.17c-2.68,4.06-4.92,7-6.26,8.8-.95,1.25-2.53,3.29-4.56,5.75-3,3.66-5.58,6.48-7.16,8.18-2.64,2.83-4.8,5-5.88,6-3.07,3-5.7,5.34-7.48,6.88-3.88,3.36-7.06,5.8-8.59,7-2.89,2.19-5.27,3.83-6.63,4.76-2.79,1.89-5,3.28-6.13,3.95-2.58,1.59-4.91,2.91-6.88,4-4.38,2.38-7.94,4-9.79,4.87-1.56.7-4,1.77-7,3,0,0-3.5,1.37-7.09,2.57-11.23,3.76-22,7.37-33.89,7-4.7-.17-9.92-.94-9.92-.94-1-.14-4.33-.65-8.87-1.74a115.41,115.41,0,0,1-30.3-12,111.85,111.85,0,0,1-19-13.64,115.68,115.68,0,0,1-11.6-12.05,104.53,104.53,0,0,1-13.3-19.6,110.14,110.14,0,0,1-7.2-18,183.71,183.71,0,0,1-6-24.34,262.71,262.71,0,0,1-3.88-26.68c-.88-10-.92-17.49-.93-19.18a180.84,180.84,0,0,1,1.24-23.17,150.14,150.14,0,0,1,5.81-28.15,143.53,143.53,0,0,1,7.65-19.47,148.1,148.1,0,0,1,8.92-15.82,172.49,172.49,0,0,1,10.77-15.19c2-2.55,5.05-6.17,8.94-10.3,4.95-5.27,9.11-9,10.87-10.55,4.41-3.89,8-6.63,9.45-7.71a143.18,143.18,0,0,1,13.17-8.8c6.53-3.85,11.55-6.81,18.72-9.11,4.92-1.58,8.7-2.12,16.26-3.18a201.49,201.49,0,0,1,21.83-1.78c12.1-.48,21.1,0,23.08.09,9.53.51,16.76,1.49,19.59,1.89,16.92,2.42,25,5.64,27.16,6.56C937.48,390,939.89,391.16,941.5,392Z" transform="translate(-729 -272.76)"/><path class="cls-16" d="M941.5,392a41.52,41.52,0,0,1,10,7.43,45.62,45.62,0,0,1,10.07,16.33c1.84,4.66,3.05,9.38,4.23,18.46A219.14,219.14,0,0,1,967.63,462c.18,36,.49,26.84.35,41.49-.19,19-.73,37.38-1.18,48.78-.22,5.92-.41,9.62-.59,16.62-.06,2.23-.33,13.29-.54,19.84a39.37,39.37,0,0,1-6.26,20.17c-2.68,4.06-4.92,7-6.26,8.8-.95,1.25-2.53,3.29-4.56,5.75-3,3.66-5.58,6.48-7.16,8.18-2.64,2.83-4.8,5-5.88,6-3.07,3-5.7,5.34-7.48,6.88-3.88,3.36-7.06,5.8-8.59,7-2.89,2.19-5.27,3.83-6.63,4.76-2.79,1.89-5,3.28-6.13,3.95-2.58,1.59-4.91,2.91-6.88,4-4.38,2.38-7.94,4-9.79,4.87-1.56.7-4,1.77-7,3,0,0-3.5,1.37-7.09,2.57-11.23,3.76-22,7.37-33.89,7-4.7-.17-9.92-.94-9.92-.94-1-.14-4.33-.65-8.87-1.74a115.41,115.41,0,0,1-30.3-12,111.85,111.85,0,0,1-19-13.64,115.68,115.68,0,0,1-11.6-12.05,104.53,104.53,0,0,1-13.3-19.6,110.14,110.14,0,0,1-7.2-18,183.71,183.71,0,0,1-6-24.34,262.71,262.71,0,0,1-3.88-26.68c-.88-10-.92-17.49-.93-19.18a180.84,180.84,0,0,1,1.24-23.17,150.14,150.14,0,0,1,5.81-28.15,143.53,143.53,0,0,1,7.65-19.47,148.1,148.1,0,0,1,8.92-15.82,172.49,172.49,0,0,1,10.77-15.19c2-2.55,5.05-6.17,8.94-10.3,4.95-5.27,9.11-9,10.87-10.55,4.41-3.89,8-6.63,9.45-7.71a143.18,143.18,0,0,1,13.17-8.8c6.53-3.85,11.55-6.81,18.72-9.11,4.92-1.58,8.7-2.12,16.26-3.18a201.49,201.49,0,0,1,21.83-1.78c12.1-.48,21.1,0,23.08.09,9.53.51,16.76,1.49,19.59,1.89,16.92,2.42,25,5.64,27.16,6.56C937.48,390,939.89,391.16,941.5,392Z" transform="translate(-729 -272.76)"/><path class="cls-14" d="M941.5,392a41.52,41.52,0,0,1,10,7.43,45.62,45.62,0,0,1,10.07,16.33c1.84,4.66,3.05,9.38,4.23,18.46A219.14,219.14,0,0,1,967.63,462c.18,36,.49,26.84.35,41.49-.19,19-.73,37.38-1.18,48.78-.22,5.92-.41,9.62-.59,16.62-.06,2.23-.33,13.29-.54,19.84a39.37,39.37,0,0,1-6.26,20.17c-2.68,4.06-4.92,7-6.26,8.8-.95,1.25-2.53,3.29-4.56,5.75-3,3.66-5.58,6.48-7.16,8.18-2.64,2.83-4.8,5-5.88,6-3.07,3-5.7,5.34-7.48,6.88-3.88,3.36-7.06,5.8-8.59,7-2.89,2.19-5.27,3.83-6.63,4.76-2.79,1.89-5,3.28-6.13,3.95-2.58,1.59-4.91,2.91-6.88,4-4.38,2.38-7.94,4-9.79,4.87-1.56.7-4,1.77-7,3,0,0-3.5,1.37-7.09,2.57-11.23,3.76-22,7.37-33.89,7-4.7-.17-9.92-.94-9.92-.94-1-.14-4.33-.65-8.87-1.74a115.41,115.41,0,0,1-30.3-12,111.85,111.85,0,0,1-19-13.64,115.68,115.68,0,0,1-11.6-12.05,104.53,104.53,0,0,1-13.3-19.6,110.14,110.14,0,0,1-7.2-18,183.71,183.71,0,0,1-6-24.34,262.71,262.71,0,0,1-3.88-26.68c-.88-10-.92-17.49-.93-19.18a180.84,180.84,0,0,1,1.24-23.17,150.14,150.14,0,0,1,5.81-28.15,143.53,143.53,0,0,1,7.65-19.47,148.1,148.1,0,0,1,8.92-15.82,172.49,172.49,0,0,1,10.77-15.19c2-2.55,5.05-6.17,8.94-10.3,4.95-5.27,9.11-9,10.87-10.55,4.41-3.89,8-6.63,9.45-7.71a143.18,143.18,0,0,1,13.17-8.8c6.53-3.85,11.55-6.81,18.72-9.11,4.92-1.58,8.7-2.12,16.26-3.18a201.49,201.49,0,0,1,21.83-1.78c12.1-.48,21.1,0,23.08.09,9.53.51,16.76,1.49,19.59,1.89,16.92,2.42,25,5.64,27.16,6.56C937.48,390,939.89,391.16,941.5,392Z" transform="translate(-729 -272.76)"/></g><g id="OcchioCazzodx-4" data-name="OcchioCazzodx"><path class="cls-15" d="M996.26,392a41.52,41.52,0,0,0-10,7.43,45.62,45.62,0,0,0-10.07,16.33c-1.84,4.65-3.05,9.38-4.23,18.46A217.15,217.15,0,0,0,970.13,462c-.18,36-.49,26.84-.35,41.49.19,19,.73,37.38,1.17,48.78.23,5.92.42,9.62.6,16.62.06,2.23.33,13.29.54,19.84a39.37,39.37,0,0,0,6.26,20.17c2.68,4.06,4.92,7,6.26,8.8.95,1.25,2.52,3.29,4.56,5.75,3,3.66,5.58,6.48,7.16,8.18,2.64,2.83,4.8,5,5.88,6,3.07,3,5.7,5.34,7.48,6.88,3.88,3.36,7.06,5.8,8.59,7,2.89,2.19,5.27,3.83,6.63,4.76,2.79,1.89,5,3.28,6.13,3.95,2.58,1.59,4.91,2.91,6.88,4,4.38,2.38,7.94,4,9.79,4.87,1.56.7,4,1.77,7,3,0,0,3.5,1.37,7.08,2.57,11.24,3.76,22,7.37,33.9,7,4.7-.17,9.92-.94,9.92-.94,1-.14,4.33-.65,8.87-1.74a116,116,0,0,0,17.63-5.74,114.24,114.24,0,0,0,12.66-6.22,111.62,111.62,0,0,0,19-13.64,116.79,116.79,0,0,0,11.6-12.05,104.53,104.53,0,0,0,13.3-19.6,110.14,110.14,0,0,0,7.2-18,185.29,185.29,0,0,0,6-24.34,258.44,258.44,0,0,0,3.87-26.68c.89-10,.93-17.49.94-19.18a180.84,180.84,0,0,0-1.24-23.17,151,151,0,0,0-5.81-28.15,141.86,141.86,0,0,0-7.66-19.47,146.64,146.64,0,0,0-8.91-15.82,172.49,172.49,0,0,0-10.77-15.19c-2-2.55-5-6.17-8.94-10.3-5-5.27-9.11-9-10.87-10.55-4.41-3.89-8-6.63-9.45-7.71a143.18,143.18,0,0,0-13.17-8.8c-6.53-3.85-11.55-6.81-18.72-9.11-4.92-1.59-8.7-2.12-16.26-3.18a201.49,201.49,0,0,0-21.83-1.78c-12.1-.48-21.1,0-23.08.09-9.53.51-16.76,1.49-19.59,1.89-16.92,2.42-25,5.64-27.16,6.56C1000.28,390,997.87,391.16,996.26,392Z" transform="translate(-729 -272.76)"/><path class="cls-17" d="M996.26,392a41.52,41.52,0,0,0-10,7.43,45.62,45.62,0,0,0-10.07,16.33c-1.84,4.65-3.05,9.38-4.23,18.46A217.15,217.15,0,0,0,970.13,462c-.18,36-.49,26.84-.35,41.49.19,19,.73,37.38,1.17,48.78.23,5.92.42,9.62.6,16.62.06,2.23.33,13.29.54,19.84a39.37,39.37,0,0,0,6.26,20.17c2.68,4.06,4.92,7,6.26,8.8.95,1.25,2.52,3.29,4.56,5.75,3,3.66,5.58,6.48,7.16,8.18,2.64,2.83,4.8,5,5.88,6,3.07,3,5.7,5.34,7.48,6.88,3.88,3.36,7.06,5.8,8.59,7,2.89,2.19,5.27,3.83,6.63,4.76,2.79,1.89,5,3.28,6.13,3.95,2.58,1.59,4.91,2.91,6.88,4,4.38,2.38,7.94,4,9.79,4.87,1.56.7,4,1.77,7,3,0,0,3.5,1.37,7.08,2.57,11.24,3.76,22,7.37,33.9,7,4.7-.17,9.92-.94,9.92-.94,1-.14,4.33-.65,8.87-1.74a116,116,0,0,0,17.63-5.74,114.24,114.24,0,0,0,12.66-6.22,111.62,111.62,0,0,0,19-13.64,116.79,116.79,0,0,0,11.6-12.05,104.53,104.53,0,0,0,13.3-19.6,110.14,110.14,0,0,0,7.2-18,185.29,185.29,0,0,0,6-24.34,258.44,258.44,0,0,0,3.87-26.68c.89-10,.93-17.49.94-19.18a180.84,180.84,0,0,0-1.24-23.17,151,151,0,0,0-5.81-28.15,141.86,141.86,0,0,0-7.66-19.47,146.64,146.64,0,0,0-8.91-15.82,172.49,172.49,0,0,0-10.77-15.19c-2-2.55-5-6.17-8.94-10.3-5-5.27-9.11-9-10.87-10.55-4.41-3.89-8-6.63-9.45-7.71a143.18,143.18,0,0,0-13.17-8.8c-6.53-3.85-11.55-6.81-18.72-9.11-4.92-1.59-8.7-2.12-16.26-3.18a201.49,201.49,0,0,0-21.83-1.78c-12.1-.48-21.1,0-23.08.09-9.53.51-16.76,1.49-19.59,1.89-16.92,2.42-25,5.64-27.16,6.56C1000.28,390,997.87,391.16,996.26,392Z" transform="translate(-729 -272.76)"/><path class="cls-14" d="M996.26,392a41.52,41.52,0,0,0-10,7.43,45.62,45.62,0,0,0-10.07,16.33c-1.84,4.65-3.05,9.38-4.23,18.46A217.15,217.15,0,0,0,970.13,462c-.18,36-.49,26.84-.35,41.49.19,19,.73,37.38,1.17,48.78.23,5.92.42,9.62.6,16.62.06,2.23.33,13.29.54,19.84a39.37,39.37,0,0,0,6.26,20.17c2.68,4.06,4.92,7,6.26,8.8.95,1.25,2.52,3.29,4.56,5.75,3,3.66,5.58,6.48,7.16,8.18,2.64,2.83,4.8,5,5.88,6,3.07,3,5.7,5.34,7.48,6.88,3.88,3.36,7.06,5.8,8.59,7,2.89,2.19,5.27,3.83,6.63,4.76,2.79,1.89,5,3.28,6.13,3.95,2.58,1.59,4.91,2.91,6.88,4,4.38,2.38,7.94,4,9.79,4.87,1.56.7,4,1.77,7,3,0,0,3.5,1.37,7.08,2.57,11.24,3.76,22,7.37,33.9,7,4.7-.17,9.92-.94,9.92-.94,1-.14,4.33-.65,8.87-1.74a116,116,0,0,0,17.63-5.74,114.24,114.24,0,0,0,12.66-6.22,111.62,111.62,0,0,0,19-13.64,116.79,116.79,0,0,0,11.6-12.05,104.53,104.53,0,0,0,13.3-19.6,110.14,110.14,0,0,0,7.2-18,185.29,185.29,0,0,0,6-24.34,258.44,258.44,0,0,0,3.87-26.68c.89-10,.93-17.49.94-19.18a180.84,180.84,0,0,0-1.24-23.17,151,151,0,0,0-5.81-28.15,141.86,141.86,0,0,0-7.66-19.47,146.64,146.64,0,0,0-8.91-15.82,172.49,172.49,0,0,0-10.77-15.19c-2-2.55-5-6.17-8.94-10.3-5-5.27-9.11-9-10.87-10.55-4.41-3.89-8-6.63-9.45-7.71a143.18,143.18,0,0,0-13.17-8.8c-6.53-3.85-11.55-6.81-18.72-9.11-4.92-1.59-8.7-2.12-16.26-3.18a201.49,201.49,0,0,0-21.83-1.78c-12.1-.48-21.1,0-23.08.09-9.53.51-16.76,1.49-19.59,1.89-16.92,2.42-25,5.64-27.16,6.56C1000.28,390,997.87,391.16,996.26,392Z" transform="translate(-729 -272.76)"/></g></g></svg>