<svg xmlns="http://www.w3.org/2000/svg" xmlns:xlink="http://www.w3.org/1999/xlink" viewBox="0 0 479.76 506.05"><defs><style>.cls-1,.cls-14{fill:none;}.cls-2{clip-path:url(#clip-path);}.cls-3{fill:url(#Sfumatura_senza_nome_133);}.cls-4{fill:url(#Sfumatura_senza_nome_133-2);}.cls-5{fill:url(#Sfumatura_senza_nome_133-3);}.cls-6{fill:url(#Sfumatura_senza_nome_133-4);}.cls-7{fill:url(#Sfumatura_senza_nome_133-5);}.cls-8{fill:url(#Sfumatura_senza_nome_133-6);}.cls-9{fill:url(#Sfumatura_senza_nome_133-7);}.cls-10,.cls-11,.cls-12,.cls-13{fill:#333;}.cls-10,.cls-13{opacity:0.5;}.cls-12,.cls-13{fill-rule:evenodd;}.cls-14{stroke:#666;stroke-miterlimit:10;stroke-width:4px;}.cls-15{fill:url(#Nuovo_pattern_2);}.cls-16{fill:url(#Sfumatura_senza_nome_54);}.cls-17{fill:url(#Sfumatura_senza_nome_54-2);}.cls-18{fill:#fff;}@media (max-width: 90px){.cls-10,.cls-11,.cls-12,.cls-13{fill:#fff;}}</style><clipPath id="clip-path"><rect class="cls-1" width="28" height="23.87"/></clipPath><linearGradient id="Sfumatura_senza_nome_133" x1="180.82" y1="-15196.92" x2="187.23" y2="-15208.02" gradientTransform="matrix(1, 0, 0, -1, -170.01, -15190.51)" gradientUnits="userSpaceOnUse"><stop offset="0" stop-color="#bd0000"/><stop offset="0.12" stop-color="#be0800"/><stop offset="0.31" stop-color="#c01f00"/><stop offset="0.55" stop-color="#c44400"/><stop offset="0.82" stop-color="#c87700"/><stop offset="1" stop-color="#cc9c00"/></linearGradient><linearGradient id="Sfumatura_senza_nome_133-2" x1="194.82" y1="-15196.92" x2="201.23" y2="-15208.02" xlink:href="#Sfumatura_senza_nome_133"/><linearGradient id="Sfumatura_senza_nome_133-3" x1="173.82" y1="-15208.85" x2="180.23" y2="-15219.95" xlink:href="#Sfumatura_senza_nome_133"/><linearGradient id="Sfumatura_senza_nome_133-4" x1="187.82" y1="-15208.85" x2="194.23" y2="-15219.95" xlink:href="#Sfumatura_senza_nome_133"/><linearGradient id="Sfumatura_senza_nome_133-5" x1="173.82" y1="-15184.98" x2="180.23" y2="-15196.09" xlink:href="#Sfumatura_senza_nome_133"/><linearGradient id="Sfumatura_senza_nome_133-6" x1="187.82" y1="-15184.98" x2="194.23" y2="-15196.09" xlink:href="#Sfumatura_senza_nome_133"/><linearGradient id="Sfumatura_senza_nome_133-7" x1="166.82" y1="-15196.92" x2="173.23" y2="-15208.02" xlink:href="#Sfumatura_senza_nome_133"/><pattern id="Nuovo_pattern_2" data-name="Nuovo pattern 2" width="28" height="23.87" patternTransform="translate(4.46 1.88)" patternUnits="userSpaceOnUse" viewBox="0 0 28 23.87"><rect class="cls-1" width="28" height="23.87"/><g class="cls-2"><polygon class="cls-3" points="7.6 8.26 7.6 15.66 14.01 19.36 20.42 15.66 20.42 8.26 14.01 4.56 7.6 8.26"/><polygon class="cls-4" points="21.61 8.26 21.61 15.66 28.01 19.36 34.42 15.66 34.42 8.26 28.01 4.56 21.61 8.26"/><polygon class="cls-5" points="0.6 20.19 0.6 27.59 7.01 31.29 13.42 27.59 13.42 20.19 7.01 16.49 0.6 20.19"/><polygon class="cls-6" points="14.6 20.19 14.6 27.59 21.01 31.29 27.42 27.59 27.42 20.19 21.01 16.49 14.6 20.19"/><polygon class="cls-7" points="0.6 -3.67 0.6 3.73 7.01 7.43 13.42 3.73 13.42 -3.67 7.01 -7.37 0.6 -3.67"/><polygon class="cls-8" points="14.6 -3.67 14.6 3.73 21.01 7.43 27.42 3.73 27.42 -3.67 21.01 -7.37 14.6 -3.67"/><polygon class="cls-9" points="-6.4 8.26 -6.4 15.66 0.01 19.36 6.42 15.66 6.42 8.26 0.01 4.56 -6.4 8.26"/></g></pattern><radialGradient id="Sfumatura_senza_nome_54" cx="1082.95" cy="530.73" fx="960.395846859606" fy="560.8864473596341" r="159.51" gradientTransform="matrix(-1, 0, 0, 1.03, 1932.46, -14.51)" gradientUnits="userSpaceOnUse"><stop offset="0" stop-color="#6a0000" stop-opacity="0.7"/><stop offset="0.15" stop-color="#5b0000" stop-opacity="0.72"/><stop offset="0.41" stop-color="#340000" stop-opacity="0.77"/><stop offset="0.51" stop-color="#200" stop-opacity="0.79"/><stop offset="0.82"/></radialGradient><radialGradient id="Sfumatura_senza_nome_54-2" cx="1088.25" cy="530.73" fx="965.6982024020626" fy="560.8862715380989" r="159.51" gradientTransform="translate(0 -14.51) scale(1 1.03)" xlink:href="#Sfumatura_senza_nome_54"/></defs><title>logo</title><g id="Nasp"><path id="Naso" class="cls-10" d="M942.05,733.67s-3,27,28.47,26.37,77.88-1.14,89.45,0c5.09.48,7.23,12.28,15,17,8.14,4.92,17.41-.93,21-9,4-9-1.29-22.29-1-29,.22-5.24,4-11.29,3-21-2.78-27.44-26-20.86-31-11-1.76,3.5-3.8,8.73-7,10-2.65,1-8,1-12,1-6.08,0-10.78-.25-23,0-15.61.32-22.69,0-25.08-2.77A12.69,12.69,0,0,1,997,707c0-12.1-1.62-49.9,0-95,.07-1.87-20.21-19.66-20.5-21.52-2.18-13.93-3.29-40.53-7-77.48l-.17,2.84c-.81,31.55-7.58,63.8-7.55,75.51l-19.79,21Z" transform="translate(-729 -272.76)"/><path class="cls-11" d="M1027,765" transform="translate(-729 -272.76)"/></g><g id="Ala2"><path id="Interno" class="cls-12" d="M1021.79,369.88l-1.81-1.81-27.14-34.38-1.21,1.81,29.56,36.19.6-1.81Zm0,6,41-1.2,2.42-1.81-42.83,1.2,19.3-42.22,1.21-1.81h0l57.9,6.64,1.81-1.81L1044.18,329l62.65-44.14-1.81-1.21-62.91,45.13L1043.5,283l-1.81,1.21-1.2,44.63h0l-1.21,3.62-.6,1.2-16.89,36.19-.6,1.81-1.81,3h0l-45.24,32,1.21,1.81" transform="translate(-729 -272.76)"/><path id="Esterno" class="cls-13" d="M1007.25,407.77c61.69-24.31,130.22-95,102.5-120.45-78.3-72-202.53,159.87-102.5,120.45Z" transform="translate(-729 -272.76)"/></g><g id="Ala1"><path id="Esterno-2" data-name="Esterno" class="cls-13" d="M829.12,286.72c-27.71,25.48,40.82,96.14,102.51,120.45C1031.66,446.59,907.43,214.73,829.12,286.72Z" transform="translate(-729 -272.76)"/><polygon id="Interno-2" data-name="Interno" class="cls-12" points="190.5 101.35 188.69 98.33 218.25 62.14 217.04 60.33 189.9 94.71 188.09 96.52 171.2 60.33 170.6 59.13 169.39 55.51 168.18 10.88 166.38 9.67 167.76 55.4 104.85 10.27 103.05 11.48 165.7 55.62 107.27 61.54 109.08 63.35 166.98 56.71 168.18 58.52 187.49 100.74 144.66 99.54 147.07 101.35 188.09 102.55 234.53 135.12 235.74 133.31 190.5 101.35"/></g><g id="OcchiExternal"><g id="OcchioCazzodx"><path d="M941.5,392a41.52,41.52,0,0,1,10,7.43,45.62,45.62,0,0,1,10.07,16.33c1.84,4.66,3.05,9.38,4.23,18.46A219.14,219.14,0,0,1,967.63,462c.18,36,.49,26.84.35,41.49-.19,19-.73,37.38-1.18,48.78-.22,5.92-.41,9.62-.59,16.62-.06,2.23-.33,13.29-.54,19.84a39.37,39.37,0,0,1-6.26,20.17c-2.68,4.06-4.92,7-6.26,8.8-.95,1.25-2.53,3.29-4.56,5.75-3,3.66-5.58,6.48-7.16,8.18-2.64,2.83-4.8,5-5.88,6-3.07,3-5.7,5.34-7.48,6.88-3.88,3.36-7.06,5.8-8.59,7-2.89,2.19-5.27,3.83-6.63,4.76-2.79,1.89-5,3.28-6.13,3.95-2.58,1.59-4.91,2.91-6.88,4-4.38,2.38-7.94,4-9.79,4.87-1.56.7-4,1.77-7,3,0,0-3.5,1.37-7.09,2.57-11.23,3.76-22,7.37-33.89,7-4.7-.17-9.92-.94-9.92-.94-1-.14-4.33-.65-8.87-1.74a115.41,115.41,0,0,1-30.3-12,111.85,111.85,0,0,1-19-13.64,115.68,115.68,0,0,1-11.6-12.05,104.53,104.53,0,0,1-13.3-19.6,110.14,110.14,0,0,1-7.2-18,183.71,183.71,0,0,1-6-24.34,262.71,262.71,0,0,1-3.88-26.68c-.88-10-.92-17.49-.93-19.18a180.84,180.84,0,0,1,1.24-23.17,150.14,150.14,0,0,1,5.81-28.15,143.53,143.53,0,0,1,7.65-19.47,148.1,148.1,0,0,1,8.92-15.82,172.49,172.49,0,0,1,10.77-15.19c2-2.55,5.05-6.17,8.94-10.3,4.95-5.27,9.11-9,10.87-10.55,4.41-3.89,8-6.63,9.45-7.71a143.18,143.18,0,0,1,13.17-8.8c6.53-3.85,11.55-6.81,18.72-9.11,4.92-1.58,8.7-2.12,16.26-3.18a201.49,201.49,0,0,1,21.83-1.78c12.1-.48,21.1,0,23.08.09,9.53.51,16.76,1.49,19.59,1.89,16.92,2.42,25,5.64,27.16,6.56C937.48,390,939.89,391.16,941.5,392Z" transform="translate(-729 -272.76)"/><path class="cls-14" d="M941.5,392a41.52,41.52,0,0,1,10,7.43,45.62,45.62,0,0,1,10.07,16.33c1.84,4.66,3.05,9.38,4.23,18.46A219.14,219.14,0,0,1,967.63,462c.18,36,.49,26.84.35,41.49-.19,19-.73,37.38-1.18,48.78-.22,5.92-.41,9.62-.59,16.62-.06,2.23-.33,13.29-.54,19.84a39.37,39.37,0,0,1-6.26,20.17c-2.68,4.06-4.92,7-6.26,8.8-.95,1.25-2.53,3.29-4.56,5.75-3,3.66-5.58,6.48-7.16,8.18-2.64,2.83-4.8,5-5.88,6-3.07,3-5.7,5.34-7.48,6.88-3.88,3.36-7.06,5.8-8.59,7-2.89,2.19-5.27,3.83-6.63,4.76-2.79,1.89-5,3.28-6.13,3.95-2.58,1.59-4.91,2.91-6.88,4-4.38,2.38-7.94,4-9.79,4.87-1.56.7-4,1.77-7,3,0,0-3.5,1.37-7.09,2.57-11.23,3.76-22,7.37-33.89,7-4.7-.17-9.92-.94-9.92-.94-1-.14-4.33-.65-8.87-1.74a115.41,115.41,0,0,1-30.3-12,111.85,111.85,0,0,1-19-13.64,115.68,115.68,0,0,1-11.6-12.05,104.53,104.53,0,0,1-13.3-19.6,110.14,110.14,0,0,1-7.2-18,183.71,183.71,0,0,1-6-24.34,262.71,262.71,0,0,1-3.88-26.68c-.88-10-.92-17.49-.93-19.18a180.84,180.84,0,0,1,1.24-23.17,150.14,150.14,0,0,1,5.81-28.15,143.53,143.53,0,0,1,7.65-19.47,148.1,148.1,0,0,1,8.92-15.82,172.49,172.49,0,0,1,10.77-15.19c2-2.55,5.05-6.17,8.94-10.3,4.95-5.27,9.11-9,10.87-10.55,4.41-3.89,8-6.63,9.45-7.71a143.18,143.18,0,0,1,13.17-8.8c6.53-3.85,11.55-6.81,18.72-9.11,4.92-1.58,8.7-2.12,16.26-3.18a201.49,201.49,0,0,1,21.83-1.78c12.1-.48,21.1,0,23.08.09,9.53.51,16.76,1.49,19.59,1.89,16.92,2.42,25,5.64,27.16,6.56C937.48,390,939.89,391.16,941.5,392Z" transform="translate(-729 -272.76)"/></g><g id="OcchioCazzodx-2" data-name="OcchioCazzodx"><path d="M996.26,392a41.52,41.52,0,0,0-10,7.43,45.62,45.62,0,0,0-10.07,16.33c-1.84,4.65-3.05,9.38-4.23,18.46A217.15,217.15,0,0,0,970.13,462c-.18,36-.49,26.84-.35,41.49.19,19,.73,37.38,1.17,48.78.23,5.92.42,9.62.6,16.62.06,2.23.33,13.29.54,19.84a39.37,39.37,0,0,0,6.26,20.17c2.68,4.06,4.92,7,6.26,8.8.95,1.25,2.52,3.29,4.56,5.75,3,3.66,5.58,6.48,7.16,8.18,2.64,2.83,4.8,5,5.88,6,3.07,3,5.7,5.34,7.48,6.88,3.88,3.36,7.06,5.8,8.59,7,2.89,2.19,5.27,3.83,6.63,4.76,2.79,1.89,5,3.28,6.13,3.95,2.58,1.59,4.91,2.91,6.88,4,4.38,2.38,7.94,4,9.79,4.87,1.56.7,4,1.77,7,3,0,0,3.5,1.37,7.08,2.57,11.24,3.76,22,7.37,33.9,7,4.7-.17,9.92-.94,9.92-.94,1-.14,4.33-.65,8.87-1.74a116,116,0,0,0,17.63-5.74,114.24,114.24,0,0,0,12.66-6.22,111.62,111.62,0,0,0,19-13.64,116.79,116.79,0,0,0,11.6-12.05,104.53,104.53,0,0,0,13.3-19.6,110.14,110.14,0,0,0,7.2-18,185.29,185.29,0,0,0,6-24.34,258.44,258.44,0,0,0,3.87-26.68c.89-10,.93-17.49.94-19.18a180.84,180.84,0,0,0-1.24-23.17,151,151,0,0,0-5.81-28.15,141.86,141.86,0,0,0-7.66-19.47,146.64,146.64,0,0,0-8.91-15.82,172.49,172.49,0,0,0-10.77-15.19c-2-2.55-5-6.17-8.94-10.3-5-5.27-9.11-9-10.87-10.55-4.41-3.89-8-6.63-9.45-7.71a143.18,143.18,0,0,0-13.17-8.8c-6.53-3.85-11.55-6.81-18.72-9.11-4.92-1.59-8.7-2.12-16.26-3.18a201.49,201.49,0,0,0-21.83-1.78c-12.1-.48-21.1,0-23.08.09-9.53.51-16.76,1.49-19.59,1.89-16.92,2.42-25,5.64-27.16,6.56C1000.28,390,997.87,391.16,996.26,392Z" transform="translate(-729 -272.76)"/><path class="cls-14" d="M996.26,392a41.52,41.52,0,0,0-10,7.43,45.62,45.62,0,0,0-10.07,16.33c-1.84,4.65-3.05,9.38-4.23,18.46A217.15,217.15,0,0,0,970.13,462c-.18,36-.49,26.84-.35,41.49.19,19,.73,37.38,1.17,48.78.23,5.92.42,9.62.6,16.62.06,2.23.33,13.29.54,19.84a39.37,39.37,0,0,0,6.26,20.17c2.68,4.06,4.92,7,6.26,8.8.95,1.25,2.52,3.29,4.56,5.75,3,3.66,5.58,6.48,7.16,8.18,2.64,2.83,4.8,5,5.88,6,3.07,3,5.7,5.34,7.48,6.88,3.88,3.36,7.06,5.8,8.59,7,2.89,2.19,5.27,3.83,6.63,4.76,2.79,1.89,5,3.28,6.13,3.95,2.58,1.59,4.91,2.91,6.88,4,4.38,2.38,7.94,4,9.79,4.87,1.56.7,4,1.77,7,3,0,0,3.5,1.37,7.08,2.57,11.24,3.76,22,7.37,33.9,7,4.7-.17,9.92-.94,9.92-.94,1-.14,4.33-.65,8.87-1.74a116,116,0,0,0,17.63-5.74,114.24,114.24,0,0,0,12.66-6.22,111.62,111.62,0,0,0,19-13.64,116.79,116.79,0,0,0,11.6-12.05,104.53,104.53,0,0,0,13.3-19.6,110.14,110.14,0,0,0,7.2-18,185.29,185.29,0,0,0,6-24.34,258.44,258.44,0,0,0,3.87-26.68c.89-10,.93-17.49.94-19.18a180.84,180.84,0,0,0-1.24-23.17,151,151,0,0,0-5.81-28.15,141.86,141.86,0,0,0-7.66-19.47,146.64,146.64,0,0,0-8.91-15.82,172.49,172.49,0,0,0-10.77-15.19c-2-2.55-5-6.17-8.94-10.3-5-5.27-9.11-9-10.87-10.55-4.41-3.89-8-6.63-9.45-7.71a143.18,143.18,0,0,0-13.17-8.8c-6.53-3.85-11.55-6.81-18.72-9.11-4.92-1.59-8.7-2.12-16.26-3.18a201.49,201.49,0,0,0-21.83-1.78c-12.1-.48-21.1,0-23.08.09-9.53.51-16.76,1.49-19.59,1.89-16.92,2.42-25,5.64-27.16,6.56C1000.28,390,997.87,391.16,996.26,392Z" transform="translate(-729 -272.76)"/></g></g><g id="OcchiInternal"><g id="OcchioCazzodx-3" data-name="OcchioCazzodx"><path class="cls-15" d="M941.5,392a41.52,41.52,0,0,1,10,7.43,45.62,45.62,0,0,1,10.07,16.33c1.84,4.66,3.05,9.38,4.23,18.46A219.14,219.14,0,0,1,967.63,462c.18,36,.49,26.84.35,41.49-.19,19-.73,37.38-1.18,48.78-.22,5.92-.41,9.62-.59,16.62-.06,2.23-.33,13.29-.54,19.84a39.37,39.37,0,0,1-6.26,20.17c-2.68,4.06-4.92,7-6.26,8.8-.95,1.25-2.53,3.29-4.56,5.75-3,3.66-5.58,6.48-7.16,8.18-2.64,2.83-4.8,5-5.88,6-3.07,3-5.7,5.34-7.48,6.88-3.88,3.36-7.06,5.8-8.59,7-2.89,2.19-5.27,3.83-6.63,4.76-2.79,1.89-5,3.28-6.13,3.95-2.58,1.59-4.91,2.91-6.88,4-4.38,2.38-7.94,4-9.79,4.87-1.56.7-4,1.77-7,3,0,0-3.5,1.37-7.09,2.57-11.23,3.76-22,7.37-33.89,7-4.7-.17-9.92-.94-9.92-.94-1-.14-4.33-.65-8.87-1.74a115.41,115.41,0,0,1-30.3-12,111.85,111.85,0,0,1-19-13.64,115.68,115.68,0,0,1-11.6-12.05,104.53,104.53,0,0,1-13.3-19.6,110.14,110.14,0,0,1-7.2-18,183.71,183.71,0,0,1-6-24.34,262.71,262.71,0,0,1-3.88-26.68c-.88-10-.92-17.49-.93-19.18a180.84,180.84,0,0,1,1.24-23.17,150.14,150.14,0,0,1,5.81-28.15,143.53,143.53,0,0,1,7.65-19.47,148.1,148.1,0,0,1,8.92-15.82,172.49,172.49,0,0,1,10.77-15.19c2-2.55,5.05-6.17,8.94-10.3,4.95-5.27,9.11-9,10.87-10.55,4.41-3.89,8-6.63,9.45-7.71a143.18,143.18,0,0,1,13.17-8.8c6.53-3.85,11.55-6.81,18.72-9.11,4.92-1.58,8.7-2.12,16.26-3.18a201.49,201.49,0,0,1,21.83-1.78c12.1-.48,21.1,0,23.08.09,9.53.51,16.76,1.49,19.59,1.89,16.92,2.42,25,5.64,27.16,6.56C937.48,390,939.89,391.16,941.5,392Z" transform="translate(-729 -272.76)"/><path class="cls-16" d="M941.5,392a41.52,41.52,0,0,1,10,7.43,45.62,45.62,0,0,1,10.07,16.33c1.84,4.66,3.05,9.38,4.23,18.46A219.14,219.14,0,0,1,967.63,462c.18,36,.49,26.84.35,41.49-.19,19-.73,37.38-1.18,48.78-.22,5.92-.41,9.62-.59,16.62-.06,2.23-.33,13.29-.54,19.84a39.37,39.37,0,0,1-6.26,20.17c-2.68,4.06-4.92,7-6.26,8.8-.95,1.25-2.53,3.29-4.56,5.75-3,3.66-5.58,6.48-7.16,8.18-2.64,2.83-4.8,5-5.88,6-3.07,3-5.7,5.34-7.48,6.88-3.88,3.36-7.06,5.8-8.59,7-2.89,2.19-5.27,3.83-6.63,4.76-2.79,1.89-5,3.28-6.13,3.95-2.58,1.59-4.91,2.91-6.88,4-4.38,2.38-7.94,4-9.79,4.87-1.56.7-4,1.77-7,3,0,0-3.5,1.37-7.09,2.57-11.23,3.76-22,7.37-33.89,7-4.7-.17-9.92-.94-9.92-.94-1-.14-4.33-.65-8.87-1.74a115.41,115.41,0,0,1-30.3-12,111.85,111.85,0,0,1-19-13.64,115.68,115.68,0,0,1-11.6-12.05,104.53,104.53,0,0,1-13.3-19.6,110.14,110.14,0,0,1-7.2-18,183.71,183.71,0,0,1-6-24.34,262.71,262.71,0,0,1-3.88-26.68c-.88-10-.92-17.49-.93-19.18a180.84,180.84,0,0,1,1.24-23.17,150.14,150.14,0,0,1,5.81-28.15,143.53,143.53,0,0,1,7.65-19.47,148.1,148.1,0,0,1,8.92-15.82,172.49,172.49,0,0,1,10.77-15.19c2-2.55,5.05-6.17,8.94-10.3,4.95-5.27,9.11-9,10.87-10.55,4.41-3.89,8-6.63,9.45-7.71a143.18,143.18,0,0,1,13.17-8.8c6.53-3.85,11.55-6.81,18.72-9.11,4.92-1.58,8.7-2.12,16.26-3.18a201.49,201.49,0,0,1,21.83-1.78c12.1-.48,21.1,0,23.08.09,9.53.51,16.76,1.49,19.59,1.89,16.92,2.42,25,5.64,27.16,6.56C937.48,390,939.89,391.16,941.5,392Z" transform="translate(-729 -272.76)"/><path class="cls-14" d="M941.5,392a41.52,41.52,0,0,1,10,7.43,45.62,45.62,0,0,1,10.07,16.33c1.84,4.66,3.05,9.38,4.23,18.46A219.14,219.14,0,0,1,967.63,462c.18,36,.49,26.84.35,41.49-.19,19-.73,37.38-1.18,48.78-.22,5.92-.41,9.62-.59,16.62-.06,2.23-.33,13.29-.54,19.84a39.37,39.37,0,0,1-6.26,20.17c-2.68,4.06-4.92,7-6.26,8.8-.95,1.25-2.53,3.29-4.56,5.75-3,3.66-5.58,6.48-7.16,8.18-2.64,2.83-4.8,5-5.88,6-3.07,3-5.7,5.34-7.48,6.88-3.88,3.36-7.06,5.8-8.59,7-2.89,2.19-5.27,3.83-6.63,4.76-2.79,1.89-5,3.28-6.13,3.95-2.58,1.59-4.91,2.91-6.88,4-4.38,2.38-7.94,4-9.79,4.87-1.56.7-4,1.77-7,3,0,0-3.5,1.37-7.09,2.57-11.23,3.76-22,7.37-33.89,7-4.7-.17-9.92-.94-9.92-.94-1-.14-4.33-.65-8.87-1.74a115.41,115.41,0,0,1-30.3-12,111.85,111.85,0,0,1-19-13.64,115.68,115.68,0,0,1-11.6-12.05,104.53,104.53,0,0,1-13.3-19.6,110.14,110.14,0,0,1-7.2-18,183.71,183.71,0,0,1-6-24.34,262.71,262.71,0,0,1-3.88-26.68c-.88-10-.92-17.49-.93-19.18a180.84,180.84,0,0,1,1.24-23.17,150.14,150.14,0,0,1,5.81-28.15,143.53,143.53,0,0,1,7.65-19.47,148.1,148.1,0,0,1,8.92-15.82,172.49,172.49,0,0,1,10.77-15.19c2-2.55,5.05-6.17,8.94-10.3,4.95-5.27,9.11-9,10.87-10.55,4.41-3.89,8-6.63,9.45-7.71a143.18,143.18,0,0,1,13.17-8.8c6.53-3.85,11.55-6.81,18.72-9.11,4.92-1.58,8.7-2.12,16.26-3.18a201.49,201.49,0,0,1,21.83-1.78c12.1-.48,21.1,0,23.08.09,9.53.51,16.76,1.49,19.59,1.89,16.92,2.42,25,5.64,27.16,6.56C937.48,390,939.89,391.16,941.5,392Z" transform="translate(-729 -272.76)"/></g><g id="OcchioCazzodx-4" data-name="OcchioCazzodx"><path class="cls-15" d="M996.26,392a41.52,41.52,0,0,0-10,7.43,45.62,45.62,0,0,0-10.07,16.33c-1.84,4.65-3.05,9.38-4.23,18.46A217.15,217.15,0,0,0,970.13,462c-.18,36-.49,26.84-.35,41.49.19,19,.73,37.38,1.17,48.78.23,5.92.42,9.62.6,16.62.06,2.23.33,13.29.54,19.84a39.37,39.37,0,0,0,6.26,20.17c2.68,4.06,4.92,7,6.26,8.8.95,1.25,2.52,3.29,4.56,5.75,3,3.66,5.58,6.48,7.16,8.18,2.64,2.83,4.8,5,5.88,6,3.07,3,5.7,5.34,7.48,6.88,3.88,3.36,7.06,5.8,8.59,7,2.89,2.19,5.27,3.83,6.63,4.76,2.79,1.89,5,3.28,6.13,3.95,2.58,1.59,4.91,2.91,6.88,4,4.38,2.38,7.94,4,9.79,4.87,1.56.7,4,1.77,7,3,0,0,3.5,1.37,7.08,2.57,11.24,3.76,22,7.37,33.9,7,4.7-.17,9.92-.94,9.92-.94,1-.14,4.33-.65,8.87-1.74a116,116,0,0,0,17.63-5.74,114.24,114.24,0,0,0,12.66-6.22,111.62,111.62,0,0,0,19-13.64,116.79,116.79,0,0,0,11.6-12.05,104.53,104.53,0,0,0,13.3-19.6,110.14,110.14,0,0,0,7.2-18,185.29,185.29,0,0,0,6-24.34,258.44,258.44,0,0,0,3.87-26.68c.89-10,.93-17.49.94-19.18a180.84,180.84,0,0,0-1.24-23.17,151,151,0,0,0-5.81-28.15,141.86,141.86,0,0,0-7.66-19.47,146.64,146.64,0,0,0-8.91-15.82,172.49,172.49,0,0,0-10.77-15.19c-2-2.55-5-6.17-8.94-10.3-5-5.27-9.11-9-10.87-10.55-4.41-3.89-8-6.63-9.45-7.71a143.18,143.18,0,0,0-13.17-8.8c-6.53-3.85-11.55-6.81-18.72-9.11-4.92-1.59-8.7-2.12-16.26-3.18a201.49,201.49,0,0,0-21.83-1.78c-12.1-.48-21.1,0-23.08.09-9.53.51-16.76,1.49-19.59,1.89-16.92,2.42-25,5.64-27.16,6.56C1000.28,390,997.87,391.16,996.26,392Z" transform="translate(-729 -272.76)"/><path class="cls-17" d="M996.26,392a41.52,41.52,0,0,0-10,7.43,45.62,45.62,0,0,0-10.07,16.33c-1.84,4.65-3.05,9.38-4.23,18.46A217.15,217.15,0,0,0,970.13,462c-.18,36-.49,26.84-.35,41.49.19,19,.73,37.38,1.17,48.78.23,5.92.42,9.62.6,16.62.06,2.23.33,13.29.54,19.84a39.37,39.37,0,0,0,6.26,20.17c2.68,4.06,4.92,7,6.26,8.8.95,1.25,2.52,3.29,4.56,5.75,3,3.66,5.58,6.48,7.16,8.18,2.64,2.83,4.8,5,5.88,6,3.07,3,5.7,5.34,7.48,6.88,3.88,3.36,7.06,5.8,8.59,7,2.89,2.19,5.27,3.83,6.63,4.76,2.79,1.89,5,3.28,6.13,3.95,2.58,1.59,4.91,2.91,6.88,4,4.38,2.38,7.94,4,9.79,4.87,1.56.7,4,1.77,7,3,0,0,3.5,1.37,7.08,2.57,11.24,3.76,22,7.37,33.9,7,4.7-.17,9.92-.94,9.92-.94,1-.14,4.33-.65,8.87-1.74a116,116,0,0,0,17.63-5.74,114.24,114.24,0,0,0,12.66-6.22,111.62,111.62,0,0,0,19-13.64,116.79,116.79,0,0,0,11.6-12.05,104.53,104.53,0,0,0,13.3-19.6,110.14,110.14,0,0,0,7.2-18,185.29,185.29,0,0,0,6-24.34,258.44,258.44,0,0,0,3.87-26.68c.89-10,.93-17.49.94-19.18a180.84,180.84,0,0,0-1.24-23.17,151,151,0,0,0-5.81-28.15,141.86,141.86,0,0,0-7.66-19.47,146.64,146.64,0,0,0-8.91-15.82,172.49,172.49,0,0,0-10.77-15.19c-2-2.55-5-6.17-8.94-10.3-5-5.27-9.11-9-10.87-10.55-4.41-3.89-8-6.63-9.45-7.71a143.18,143.18,0,0,0-13.17-8.8c-6.53-3.85-11.55-6.81-18.72-9.11-4.92-1.59-8.7-2.12-16.26-3.18a201.49,201.49,0,0,0-21.83-1.78c-12.1-.48-21.1,0-23.08.09-9.53.51-16.76,1.49-19.59,1.89-16.92,2.42-25,5.64-27.16,6.56C1000.28,390,997.87,391.16,996.26,392Z" transform="translate(-729 -272.76)"/><path class="cls-14" d="M996.26,392a41.52,41.52,0,0,0-10,7.43,45.62,45.62,0,0,0-10.07,16.33c-1.84,4.65-3.05,9.38-4.23,18.46A217.15,217.15,0,0,0,970.13,462c-.18,36-.49,26.84-.35,41.49.19,19,.73,37.38,1.17,48.78.23,5.92.42,9.62.6,16.62.06,2.23.33,13.29.54,19.84a39.37,39.37,0,0,0,6.26,20.17c2.68,4.06,4.92,7,6.26,8.8.95,1.25,2.52,3.29,4.56,5.75,3,3.66,5.58,6.48,7.16,8.18,2.64,2.83,4.8,5,5.88,6,3.07,3,5.7,5.34,7.48,6.88,3.88,3.36,7.06,5.8,8.59,7,2.89,2.19,5.27,3.83,6.63,4.76,2.79,1.89,5,3.28,6.13,3.95,2.58,1.59,4.91,2.91,6.88,4,4.38,2.38,7.94,4,9.79,4.87,1.56.7,4,1.77,7,3,0,0,3.5,1.37,7.08,2.57,11.24,3.76,22,7.37,33.9,7,4.7-.17,9.92-.94,9.92-.94,1-.14,4.33-.65,8.87-1.74a116,116,0,0,0,17.63-5.74,114.24,114.24,0,0,0,12.66-6.22,111.62,111.62,0,0,0,19-13.64,116.79,116.79,0,0,0,11.6-12.05,104.53,104.53,0,0,0,13.3-19.6,110.14,110.14,0,0,0,7.2-18,185.29,185.29,0,0,0,6-24.34,258.44,258.44,0,0,0,3.87-26.68c.89-10,.93-17.49.94-19.18a180.84,180.84,0,0,0-1.24-23.17,151,151,0,0,0-5.81-28.15,141.86,141.86,0,0,0-7.66-19.47,146.64,146.64,0,0,0-8.91-15.82,172.49,172.49,0,0,0-10.77-15.19c-2-2.55-5-6.17-8.94-10.3-5-5.27-9.11-9-10.87-10.55-4.41-3.89-8-6.63-9.45-7.71a143.18,143.18,0,0,0-13.17-8.8c-6.53-3.85-11.55-6.81-18.72-9.11-4.92-1.59-8.7-2.12-16.26-3.18a201.49,201.49,0,0,0-21.83-1.78c-12.1-.48-21.1,0-23.08.09-9.53.51-16.76,1.49-19.59,1.89-16.92,2.42-25,5.64-27.16,6.56C1000.28,390,997.87,391.16,996.26,392Z" transform="translate(-729 -272.76)"/></g></g><g id="F"><path class="cls-18" d="M1014.12,580.82a2.15,2.15,0,0,1-2.11-1.21,2.66,2.66,0,0,1-.3-1.2v-2.57a4.06,4.06,0,0,1,.3-2.11,4,4,0,0,1,2.11-.3v-7.69a2.28,2.28,0,0,1-1.21,2.26,2.55,2.55,0,0,1-1.2.31l-2.57-2.57V558.2l2.57-2.41a4.49,4.49,0,0,1-2.26-.3c-.21-.2-.31-1-.31-2.26a2.59,2.59,0,0,1,.31-1.21,2.29,2.29,0,0,1,2.26-1.21,2.78,2.78,0,0,0-.38-1.5,4.6,4.6,0,0,0-.9-1.06,5.22,5.22,0,0,1-.91-1,2.43,2.43,0,0,1-.38-1.43l2.57-2.56V530.61a2.28,2.28,0,0,1-2.26-1.21,2.55,2.55,0,0,1-.31-1.2,2.59,2.59,0,0,1,.31-1.21,6,6,0,0,1,.75-.9,2,2,0,0,1,1.51-.46,4.49,4.49,0,0,1-2.26-.3c-.21-.2-.31-.9-.31-2.11a4.7,4.7,0,0,1,.38-1.81,13.52,13.52,0,0,1,.83-1.66,18.34,18.34,0,0,1,1.36-1.51l2.41-2.56v-2.56l-2.41-2.41a17.18,17.18,0,0,0,2.11-2.57,6.27,6.27,0,0,0,.3-2.41v-5a4,4,0,0,1-2.11-.3,5,5,0,0,1-.3-2.41,4.49,4.49,0,0,1-2.26-.3c-.21-.2-.31-.91-.31-2.11v-7.54a2.59,2.59,0,0,1,.31-1.21,6,6,0,0,1,.75-.9,2,2,0,0,1,1.51-.46,2.17,2.17,0,0,1,1.2-2.11,2.7,2.7,0,0,1,1.21-.3v-5h2.56c.61-.61,1.08-1.11,1.44-1.51s.67-.76,1-1.06.65-.62,1-1,.91-.83,1.51-1.43h5.13v2.41l1.5-1.2a14.06,14.06,0,0,1,1.59-.83,4.51,4.51,0,0,1,1.88-.38l2.57,2.41a4.14,4.14,0,0,0,1.73-.37,15.74,15.74,0,0,0,1.58-.83c.51-.4,1.06-.81,1.66-1.21a6.27,6.27,0,0,1,2.41.3,16.67,16.67,0,0,1,2.57,2.11,2.16,2.16,0,0,1,1.2-2.11,2.7,2.7,0,0,1,1.21-.3,2.82,2.82,0,0,1,1.51.38,5.49,5.49,0,0,1,1,.83,8.6,8.6,0,0,0,1,.83,2.44,2.44,0,0,0,1.44.37v2.57l2.56-2.57a44,44,0,0,0,6-3.39,7.33,7.33,0,0,1,4.07-1.58,17.94,17.94,0,0,1,3.47.3c1,.2,1.51,1,1.51,2.26a2.28,2.28,0,0,1,2.26,1.21,2.66,2.66,0,0,1,.3,1.2q0,7.55-7.54,7.54a22.86,22.86,0,0,1-5.28,3.7q-3.46,1.88-7.38,3.69-3.78,2-7.47,3.54a18.71,18.71,0,0,1-7.46,1.59,2.84,2.84,0,0,1,1.51.37,6.41,6.41,0,0,1,1,.83,7.81,7.81,0,0,0,1,.83,2.43,2.43,0,0,0,1.43.38v2.71a6.33,6.33,0,0,1-.3,2.42,16.64,16.64,0,0,1-2.11,2.56h2.41v2.41a7,7,0,0,1-.3,2.57,13.81,13.81,0,0,1-2.11,2.41l2.41,2.56c0-1.3.53-2.06,1.59-2.26a18.12,18.12,0,0,1,3.39-.3,2.73,2.73,0,0,1,1.21.3,4.53,4.53,0,0,1,.9.83,2.13,2.13,0,0,1,.45,1.43l2.42-2.56a4.07,4.07,0,0,1,1.81.45c.6.3,1.15.6,1.65.91s1.06.8,1.66,1.2h2.42a18.74,18.74,0,0,1,3.61.3c1,.21,1.51,1,1.51,2.26l2.57,2.42a8.78,8.78,0,0,1-1.89,6,17,17,0,0,1-5.8,4,12.28,12.28,0,0,0-5,1.58,17.22,17.22,0,0,0-5,3.55c-1.2.6-2.31,1.1-3.31,1.5s-2,.76-2.94,1.06-1.94.65-2.94,1.05-2.11.91-3.32,1.51h2.56v2.42l2.41,2.56-2.41,2.41v7.54a2.7,2.7,0,0,1,1.21.3,2.17,2.17,0,0,1,1.2,2.11v2.57a2.47,2.47,0,0,1-1.5,2.56,12,12,0,0,0-3.47,2.41v0a2.84,2.84,0,0,1,1.51.38,4.55,4.55,0,0,1,1,.9,5.22,5.22,0,0,0,1,.91,2.43,2.43,0,0,0,1.43.38v2.56a2.28,2.28,0,0,1-1.2,2.26,2.7,2.7,0,0,1-1.21.3,16.64,16.64,0,0,1-2.56,2.11,6.1,6.1,0,0,1-2.41.3c.6,0,1,.16,1.05.46a1,1,0,0,1-.15.9,4.74,4.74,0,0,1-.9,1.21h-2.57a2.43,2.43,0,0,1-.37,1.43,6,6,0,0,1-.91,1,4.6,4.6,0,0,0-.9,1.06,2.7,2.7,0,0,0-.38,1.5h-7.54a2.82,2.82,0,0,0-1.51.38,4.59,4.59,0,0,0-1,.91,5.88,5.88,0,0,1-1,.9,2.46,2.46,0,0,1-1.44.38,4.51,4.51,0,0,1-2.26-.3,4.57,4.57,0,0,1-.3-2.27Zm-2.41-92.73h2.41a2.28,2.28,0,0,1,1.21-2.26,3,3,0,0,1,1.35-.31,3.77,3.77,0,0,0-1.88.46c-.55.3-1.08.6-1.58.9Zm2.41,32.57-2.41,2.56h2.41a2.28,2.28,0,0,1,1.21-2.26,3,3,0,0,1,1.35-.3,13.36,13.36,0,0,1,2.42-2.11,6.79,6.79,0,0,1,2.56-.31v-2.56a7.45,7.45,0,0,1-2.26,1.51q-1.36.6-2.49,1a12.77,12.77,0,0,0-2,1A1.64,1.64,0,0,0,1014.12,520.66Zm2.56-22.62v-2.41a6.62,6.62,0,0,0,3.7-1.28,6.53,6.53,0,0,1,3.69-1.29l2.72-2.56h-5.13a6.86,6.86,0,0,1-.3,2.56,15.31,15.31,0,0,1-2.26,2.57,4,4,0,0,0-1.51.3c-.51.2-1.06.45-1.66.75a7.14,7.14,0,0,0-1.81,1.36Zm-2.56,30.16c.6-.51,1.26-1,2-1.51a26.86,26.86,0,0,1,2.26-1.66,24.81,24.81,0,0,1,3.32-1.81l2.41-2.56a2.43,2.43,0,0,0-1.43.37,6,6,0,0,0-1,.91,4.6,4.6,0,0,1-1.06.9,2.7,2.7,0,0,1-1.5.38l-2.42,2.41a2,2,0,0,0-1.5.46,6.06,6.06,0,0,0-.76.9A2.7,2.7,0,0,0,1014.12,528.2Zm5,2.41a9.47,9.47,0,0,1-3.4,2.56,2.47,2.47,0,0,0-1.58,2.57,10.13,10.13,0,0,1,3.77-2.57,10,10,0,0,0,3.77-2.56l2.41-2.41h2.72a13.6,13.6,0,0,0-3.4.37,13.05,13.05,0,0,0-2.33.83A11.4,11.4,0,0,0,1019.1,530.61Zm-2.42,7.69h-2.56v2.56Zm0-47.8a2.39,2.39,0,0,0,1.44-.38,7.69,7.69,0,0,0,1-.83,6.41,6.41,0,0,1,1-.83,2.82,2.82,0,0,1,1.51-.37,6.86,6.86,0,0,0-2.56.3A13.36,13.36,0,0,0,1016.68,490.5Zm0,12.67h2.42a28.7,28.7,0,0,1,5.42-3.77q3.48-2,7.24-3.77a2.7,2.7,0,0,0,1.21-.3,6.06,6.06,0,0,0,.9-.76,2.08,2.08,0,0,0,.46-1.51,2.43,2.43,0,0,0,1.43-.37,5.22,5.22,0,0,0,1-.91,4.55,4.55,0,0,1,1-.9,2.82,2.82,0,0,1,1.51-.38,24.83,24.83,0,0,1-7.24,2.56,9,9,0,0,0-5.27,2.57l-2.72,2.41a4.07,4.07,0,0,0-1.81.45c-.6.3-1.15.6-1.66.91a18.27,18.27,0,0,0-1.5,1.35Zm7.39,5v-2.41a13.44,13.44,0,0,1-2.41,2.11,6.9,6.9,0,0,1-2.56.3h-2.42v5l2.72-1.51,2.49-1.58A9.8,9.8,0,0,0,1024.07,508.14Zm-7.39,72.68h2.42l2.56-2.41a12.12,12.12,0,0,1-1.88,1.36,15.87,15.87,0,0,1-1.59.75A4,4,0,0,1,1016.68,580.82Zm5-45.08h2.41a13.56,13.56,0,0,1,2.64-2.27,7,7,0,0,1,2.49-.3,2.66,2.66,0,0,1,.3-1.2,6,6,0,0,1,.75-.91,2.11,2.11,0,0,1,1.51-.45,7.2,7.2,0,0,1-3.77,2.26,23.92,23.92,0,0,1-3.92.3,3,3,0,0,1-.3,1.36A2.17,2.17,0,0,1,1021.66,535.74Zm0,30a1.77,1.77,0,0,1,2.41-2.41,2.66,2.66,0,0,0-1.2.3A2.16,2.16,0,0,0,1021.66,565.74Zm5.13-85.19a2.43,2.43,0,0,0,1.43-.38,7.81,7.81,0,0,0,1-.83,5.91,5.91,0,0,1,1-.83,2.84,2.84,0,0,1,1.51-.37,4.49,4.49,0,0,0-1.66.3,14.79,14.79,0,0,0-1.58.75A7.58,7.58,0,0,0,1026.79,480.55Zm0,60.31a13,13,0,0,1,2.41-2.26,6.9,6.9,0,0,1,2.56-.3l2.57-2.56h-2.57l-1.51,1.5-1,1.06c-.3.3-.63.65-1,1.05S1027.39,540.26,1026.79,540.86Zm0,17.34,5-5a2.11,2.11,0,0,1-.45,1.51,6,6,0,0,1-.9.75,2.73,2.73,0,0,1-1.21.3,1.77,1.77,0,0,0-2.41,2.41Zm0,12.67v2.56a2.84,2.84,0,0,1,.37-1.51,5.91,5.91,0,0,1,.83-1,5.65,5.65,0,0,0,.83-1.06,2.78,2.78,0,0,0,.38-1.5h0Zm5-87.76-2.56,2.41a17.48,17.48,0,0,1,2.56-2.11,6.92,6.92,0,0,1,2.57-.3c.6-.6,1.08-1.1,1.43-1.51s.68-.75,1-1.05.65-.63,1-1,.91-.83,1.51-1.43c-1,.5-2,1-2.86,1.5s-1.64,1.06-2.49,1.66A17.73,17.73,0,0,0,1031.76,483.11Zm0,22.62-2.56,2.41c.6-.4,1.15-.8,1.66-1.2a13.92,13.92,0,0,1,1.58-.83,4.52,4.52,0,0,1,1.89-.38,7.09,7.09,0,0,0,1.35-1.81c.3-.6.55-1.15.76-1.66a4,4,0,0,0,.3-1.51Zm-2.56,14.93v2.56l1.51-1.51,1-1.05c.3-.3.66-.63,1.06-1s.9-.83,1.51-1.44a2.17,2.17,0,0,0,2.11-1.2,3,3,0,0,0,.3-1.36,10,10,0,0,1-1.81,1.66,16.51,16.51,0,0,1-2.34,1.58C1031.64,519.48,1030.5,520.05,1029.2,520.66Zm2.56-7.54a12,12,0,0,1,3.47-2.41,2.49,2.49,0,0,0,1.51-2.57h2.56a5.67,5.67,0,0,0-3.77,1.59Q1033.73,511.3,1031.76,513.12Zm5,10.1a2.43,2.43,0,0,0-1.43.38,7.16,7.16,0,0,0-1,.83,6.38,6.38,0,0,1-1.06.83,2.79,2.79,0,0,1-1.51.37,17.94,17.94,0,0,0,3.47-.3,1.86,1.86,0,0,0,1.51-2.11,5.72,5.72,0,0,0,3.77-1.58q1.8-1.59,3.77-3.4a2.54,2.54,0,0,0,1.2-.3,2.28,2.28,0,0,0,1.21-2.26,10.41,10.41,0,0,0-4.9,1.89A13.85,13.85,0,0,0,1036.74,523.22Zm-2.41-22.47a2.85,2.85,0,0,1,.3-1.35,5.56,5.56,0,0,1,.75-.91,1.86,1.86,0,0,1,1.36-.45h2.56l2.72-1.51,2.48-1.58a9.63,9.63,0,0,0,2.19-1.89q3.76-3.76,7.24-7.16t5.28-5.35a8.32,8.32,0,0,1,3.92-2.11,22.94,22.94,0,0,1,3.77-.3h5v2.41a1.88,1.88,0,0,1-2.56,2.56l2.56,2.41a1.82,1.82,0,0,1,1.36.46,6,6,0,0,1,.75.9,2.7,2.7,0,0,1,.3,1.21l-2.41,2.41a2.73,2.73,0,0,1,1.21.3,2.29,2.29,0,0,1,1.2,2.26l-2.41,2.57h-2.56a2.66,2.66,0,0,1-.3,1.2,2.16,2.16,0,0,1-2.11,1.21,3,3,0,0,1-.31,1.36,2.24,2.24,0,0,1-2.26,1.35l-2.41-2.71v-2.41a2.66,2.66,0,0,1-.3,1.2,2.42,2.42,0,0,1-2.41,1.21c-.51.5-1,1-1.51,1.36a5.43,5.43,0,0,1-3.47,1.35l-2.56-2.71v-5a12.14,12.14,0,0,0-2.42,3.47,2.45,2.45,0,0,1-2.56,1.51,28.43,28.43,0,0,1-3.69,3.62,6,6,0,0,1-3.7,1.51,2.82,2.82,0,0,1-1.51-.38,5.91,5.91,0,0,1-1-.83,7.81,7.81,0,0,0-1-.83A2.43,2.43,0,0,0,1034.33,500.75Zm0-12.66a7.5,7.5,0,0,1,2.18-1.51,23.66,23.66,0,0,1,2.72-1.06c1-.3,1.88-.62,2.79-1a6.57,6.57,0,0,0,2.26-1.43,9.57,9.57,0,0,1,3.39-2.56,2.34,2.34,0,0,0,1.58-2.41h-5a5.49,5.49,0,0,1-5,5,1.86,1.86,0,0,1-.45,1.36,6,6,0,0,1-.9.75,2.73,2.73,0,0,1-1.21.3Zm0,85.34a2.29,2.29,0,0,1,1.2-2.26,2.7,2.7,0,0,1,1.21-.3,2.7,2.7,0,0,0-1.21.3A2.29,2.29,0,0,0,1034.33,573.43Zm2.41-42.82a7.14,7.14,0,0,1,1.81-1.36c.6-.3,1.15-.55,1.66-.75a4,4,0,0,1,1.5-.3l7.54-7.54a2.46,2.46,0,0,0,1.44-.38,7.81,7.81,0,0,0,1-.83,5.91,5.91,0,0,1,1-.83,2.82,2.82,0,0,1,1.51-.38h-2.56a10.13,10.13,0,0,0-2.42,3.4,2.45,2.45,0,0,1-2.56,1.58,9.34,9.34,0,0,1-3.69,2.41,8.9,8.9,0,0,0-3.7,2.57Zm7.54,12.67h-2.57a2.16,2.16,0,0,1-2.11-1.21,2.67,2.67,0,0,1-.3-1.21,9.17,9.17,0,0,1-2-2.26c0-.2.65-.3,2-.3,0-1,.4-1.31,1.21-.91a5,5,0,0,1,1.2.91,2.45,2.45,0,0,1,1.59-2.56,9.7,9.7,0,0,0,3.39-2.57,6.39,6.39,0,0,0,3.77-1.28,6.46,6.46,0,0,1,3.77-1.28,21.32,21.32,0,0,0,3.77-4.9,21.88,21.88,0,0,1,3.92-5.05,6.76,6.76,0,0,0,3.69-1.21,6.9,6.9,0,0,1,3.7-1.21,2.68,2.68,0,0,1,1.2.31,5.56,5.56,0,0,1,.91.75,1.84,1.84,0,0,1,.45,1.36,4,4,0,0,1,2.11.3,4.51,4.51,0,0,1,.3,2.26h2.57a4,4,0,0,1-.45,1.81c-.31.6-.61,1.16-.91,1.66s-.81,1-1.21,1.51h-2.41a2.66,2.66,0,0,0,.3,1.2,2.16,2.16,0,0,0,2.11,1.21,3,3,0,0,1-.3,1.36,2.15,2.15,0,0,1-2.11,1.2h-2.56a20.63,20.63,0,0,1-1.81,1.89c-.6.55-1.16,1.08-1.66,1.58s-1,1.06-1.51,1.66a10.72,10.72,0,0,1-2.49,2.26,7.55,7.55,0,0,1-2.63.3,2.67,2.67,0,0,1-1.21-.3,2.28,2.28,0,0,1-1.21-2.26v-2.56a2.45,2.45,0,0,1-1.58,2.56,10.76,10.76,0,0,0-3.54,2.56,2.44,2.44,0,0,0-1.44.38,8.6,8.6,0,0,0-1,.83,5.91,5.91,0,0,1-1,.83,2.82,2.82,0,0,1-1.51.38Zm-2.57-7.54q3.78-2,7.17-3.85a28.57,28.57,0,0,0,5.35-3.69q7.69-3.93,7.69-7.54h-5.13a3.87,3.87,0,0,1-.45,1.88c-.3.56-.6,1.08-.9,1.59l-1.21,1.5a18.47,18.47,0,0,1-5,3.47,12.12,12.12,0,0,1-4.9,1.51,2.82,2.82,0,0,1-.38,1.51,4.55,4.55,0,0,1-.9,1,4.41,4.41,0,0,0-.91,1.06A2.79,2.79,0,0,0,1041.71,535.74Zm7.54-50.22-5,5c1.2-.6,2.56-1.21,4.07-1.81s3-1.23,4.37-1.88,2.69-1.29,3.85-1.89a11.12,11.12,0,0,0,2.64-1.81q7.68-3.76,7.69-7.54a4,4,0,0,0-.31-2.11,4.49,4.49,0,0,0-2.26-.3c-1.2,0-3.07,1.13-5.58,3.39S1053.07,481.81,1049.25,485.52Zm7.54,7.54a2.08,2.08,0,0,1-.45,1.51,6.06,6.06,0,0,1-.9.76,2.73,2.73,0,0,1-1.21.3h2.56l2.42-2.57a2.54,2.54,0,0,1,.3-1.2,4.28,4.28,0,0,1,.83-.91,2.38,2.38,0,0,1,1.58-.45l-1.66,1.43a5,5,0,0,1-1,.76,3.28,3.28,0,0,1-1,.3A11,11,0,0,1,1056.79,493.06Zm2.42-5a4.06,4.06,0,0,0-2.12.3,4,4,0,0,0-.3,2.11,4,4,0,0,1,.3-2.11,4.06,4.06,0,0,1,2.12-.3c.7-.61,1.48-1.23,2.33-1.89l2.49-1.88a12.92,12.92,0,0,0,2-1.89,3,3,0,0,0,.83-1.88,29,29,0,0,0-2.87,2,17.56,17.56,0,0,0-2.49,2.34A19.45,19.45,0,0,0,1059.21,488.09Zm2.71,37.54a1.77,1.77,0,0,0,2.41-2.41h2.57c-.61.4-1.16.81-1.66,1.21a15.91,15.91,0,0,1-1.59.83A4.14,4.14,0,0,1,1061.92,525.63Zm2.41,5a2.73,2.73,0,0,1,.3-1.21,2.3,2.3,0,0,1,2.27-1.2h-2.57Zm2.57-40.11a2.73,2.73,0,0,1,.3-1.21,2.15,2.15,0,0,1,2.11-1.2,2.15,2.15,0,0,0-2.11,1.2A2.73,2.73,0,0,0,1066.9,490.5Z" transform="translate(-729 -272.76)"/></g><g id="S"><path class="cls-18" d="M882.57,583.84h-9.8a17.44,17.44,0,0,1-3.24-.3,1.89,1.89,0,0,1-1.58-2.12v-2.56h-7.24a5.93,5.93,0,0,1-3.47-1.05l-1.51-1.21V574l-2.56-2.42a4.15,4.15,0,0,1,.38-1.73,15.74,15.74,0,0,1,.83-1.58,16.85,16.85,0,0,1,1.35-1.51v-2.57a2.36,2.36,0,0,1,1.51-2.41,11.09,11.09,0,0,0,3.47-2.56,4.49,4.49,0,0,1-2.26-.3,3.59,3.59,0,0,1-.3-2l2.56-2.57a2.49,2.49,0,0,0,1.06-.3A2.15,2.15,0,0,0,863,552h2.57a2.66,2.66,0,0,1,1.2.3,2.16,2.16,0,0,1,1.21,2.11,4.54,4.54,0,0,1-.3,2.27,4.06,4.06,0,0,1-2.11.3,4.06,4.06,0,0,0,2.11-.3,4.54,4.54,0,0,0,.3-2.27h7.39V557a6.52,6.52,0,0,1,3.69-2.26,21.57,21.57,0,0,1,3.54-.31,2.56,2.56,0,0,1,1.21.31,4.77,4.77,0,0,1,.91.82,2.16,2.16,0,0,1,.45,1.44h2.41a2.82,2.82,0,0,1,1.51.37,11.06,11.06,0,0,1,1.05.76l.91.75a2.08,2.08,0,0,0,1.36.38v2.56a2.43,2.43,0,0,1-.38,1.43c-.25.36-.51.68-.76,1a10.8,10.8,0,0,0-.75,1.06,1.51,1.51,0,0,1-1.88,1.88,10.11,10.11,0,0,0-1.06.76c-.3.25-.63.5-1,.75a2.43,2.43,0,0,1-1.43.38c-2.41,1.31-4.75,2.56-7,3.77a22.54,22.54,0,0,0-5.36,3.77l-2.26,2.26,2.26,2.56a6.74,6.74,0,0,0,2.57-.3,13,13,0,0,0,2.41-2.26,5.71,5.71,0,0,1,1.58-3.54q1.59-1.89,3.24-3.7c2.52-1.3,4.6-2.43,6.26-3.39a12.14,12.14,0,0,1,6.11-1.43q5.43-5.73,9.8-10.86a56,56,0,0,1,9.8-9.05,32.28,32.28,0,0,0,3.62-2.11c1.21-.8,2.36-1.58,3.47-2.33s2.11-1.41,3-2a4.59,4.59,0,0,1,2.27-.83,4.48,4.48,0,0,1,3.31,1.58,4.84,4.84,0,0,1,1.51,3.39,4,4,0,0,1,2.11.3,3.61,3.61,0,0,1,.3,2,3,3,0,0,1-.3,1.36,2.16,2.16,0,0,1-2.11,1.21l2.41,2.56,2.57,2.41a7.25,7.25,0,0,1-.46,2.87,5.3,5.3,0,0,1-1.13,1.73,10.36,10.36,0,0,1-1.58,1.28,12.7,12.7,0,0,0-1.81,1.51l-2.41,2.41v4.83h-2.41a3,3,0,0,1-.31,1.36,2.28,2.28,0,0,1-2.26,1.2,6.55,6.55,0,0,0-3.62,1.21A6.5,6.5,0,0,1,917.1,574l-9.8,9.8a6.79,6.79,0,0,0-3.84,1.28,6.43,6.43,0,0,1-3.54,1.28,3,3,0,0,1-1.36-.3,2.28,2.28,0,0,1-1.21-2.26l-2.41-2.42q-2,1.82-4,3.4a9.29,9.29,0,0,1-5.8,1.58,3,3,0,0,1-1.36-.3A2.3,2.3,0,0,1,882.57,583.84Zm19.61-29.41V552a2.73,2.73,0,0,1,.3-1.21,6,6,0,0,1,.75-.9,2.1,2.1,0,0,1,1.51-.45v-2.57c-1.21,0-2-.35-2.26-1a2.67,2.67,0,0,1-.3-1.21h-2.26a3,3,0,0,1-1.36-.3,2.15,2.15,0,0,1-1.21-2.11v-2.56h-2.41a2.87,2.87,0,0,1-1.36-.31,1.45,1.45,0,1,0-2.41,0,2.32,2.32,0,0,1-1.06.31,6.62,6.62,0,0,1-2.56-.31,12.63,12.63,0,0,1-2.41-2.26,3,3,0,0,1-1.36-.3,4.93,4.93,0,0,1-.83-.68.69.69,0,1,0-.75,0,4.93,4.93,0,0,1-.83.68,2.45,2.45,0,0,1-1.06.3l-2.56-2.26h-5a2.66,2.66,0,0,1-1.2-.3c-.71-.3-1.06-1.06-1.06-2.26v-2.41a3,3,0,0,0-1.36.3,2.15,2.15,0,0,0-1.2,2.11,2.43,2.43,0,0,1-1.43-.38,7.16,7.16,0,0,1-1-.83,6.38,6.38,0,0,0-1.06-.83,2.79,2.79,0,0,0-1.51-.37v-7.39h-4.82a2.46,2.46,0,0,0-.38-1.44,8.6,8.6,0,0,0-.83-1,5.91,5.91,0,0,1-.83-1,2.82,2.82,0,0,1-.38-1.51,2,2,0,0,1,1.21-2,2.67,2.67,0,0,1,1.21-.3v-2.56c-1.21,0-1.91-.1-2.11-.31s-.31-.9-.31-2.11v-4.82A17.13,17.13,0,0,1,856,502a1.86,1.86,0,0,1,2.11-1.51v-2.56a17.28,17.28,0,0,1,.3-3.24c.2-1.06.95-1.59,2.26-1.59v-2.41a6.9,6.9,0,0,1,.3-2.56,12,12,0,0,1,2-2.26,2.59,2.59,0,0,0,1.21-.31,6,6,0,0,0,.9-.75,2.08,2.08,0,0,0,.46-1.51,2.66,2.66,0,0,0,1.2-.3A2.28,2.28,0,0,0,868,480.7h4.82a4.23,4.23,0,0,1,.38-1.74,16.9,16.9,0,0,1,.83-1.58,18.34,18.34,0,0,1,1.36-1.51,2.43,2.43,0,0,0,1.43-.37,7.81,7.81,0,0,0,1-.83,5.91,5.91,0,0,1,1-.83,2.84,2.84,0,0,1,1.51-.38l2.26,2.41,2.57-2.41a6.61,6.61,0,0,0,3.69-1.28,6.44,6.44,0,0,1,3.55-1.28h5a2.82,2.82,0,0,1,1.51.37,5.15,5.15,0,0,1,1.06.91,7.64,7.64,0,0,0,.9.9,2,2,0,0,0,1.36.38h5.12a6.36,6.36,0,0,1,2.42.3,14.82,14.82,0,0,1,2.41,2.11,4.06,4.06,0,0,1,.3-2.11,4,4,0,0,1,2.11-.3A4.8,4.8,0,0,1,918,475a4.64,4.64,0,0,1,1.51,3.32v2.41a6.12,6.12,0,0,1-1.51,3.84,25.77,25.77,0,0,1-3.47,3.55c-2.41,1.31-4.85,2.56-7.31,3.77s-4.9,2.46-7.31,3.77q-3.78,1.65-8.68,3.54t-8.67,3.69l-2.26,2.57h2.26a1.78,1.78,0,0,0,.38,1.28,5.47,5.47,0,0,0,.83.68,3,3,0,0,0,1.36.3,2.49,2.49,0,0,1,.3-1.06,2.15,2.15,0,0,1,2.11-1.2l2.56,2.26v2.56a11,11,0,0,1,2.27-2.26,6.86,6.86,0,0,1,2.56-.3,2.73,2.73,0,0,1,1.21.3,2.29,2.29,0,0,1,1.2,2.26,16.67,16.67,0,0,1,3.39.3c1,.21,1.44.91,1.44,2.12v2.56a6.9,6.9,0,0,1,2.56.3,18.94,18.94,0,0,1,2.56,2h2.42q0-1.5,1.2-.9a4.74,4.74,0,0,1,1.21.9h5v2.56l2.42-2.56a2.43,2.43,0,0,1,1.43.38,5.51,5.51,0,0,1,1,.9,5.22,5.22,0,0,0,1,.91,2.43,2.43,0,0,0,1.43.37v2.42a3,3,0,0,1-.3,1.35,1.4,1.4,0,1,0,0,2.42,2.42,2.42,0,0,1,.3,1,18.78,18.78,0,0,1,2.57-2,6.27,6.27,0,0,1,2.41-.3,2.66,2.66,0,0,1,1.2.3,2,2,0,0,1,1.21,2v2.57a4,4,0,0,1-.3,1.5c-.2.51-.45,1.06-.75,1.66a7.21,7.21,0,0,1-1.36,1.81h4.82c1.31,1.11,2,1.86,2,2.26s-.65,1.26-2,2.57a2.55,2.55,0,0,1-1.2-.31,2.28,2.28,0,0,1-1.21-2.26v2.57a2.43,2.43,0,0,0-1.43.37,5.6,5.6,0,0,0-1,.91,5.51,5.51,0,0,1-1,.9,2.45,2.45,0,0,1-1.43.38,3,3,0,0,0-1.36.3,2.16,2.16,0,0,0-1.21,2.11,29.83,29.83,0,0,0-3.62,2.19q-1.8,1.27-3.39,2.64c-1.05.9-2,1.81-2.94,2.71s-1.66,1.66-2.26,2.26a6.26,6.26,0,0,0-3.62,1.28,6.41,6.41,0,0,1-3.77,1.29,3,3,0,0,1-1.36-.3A2.31,2.31,0,0,1,902.18,554.43Zm-42.53-49.38a4.4,4.4,0,0,0,1.06-.9,6.51,6.51,0,0,1,.91-.91,2.07,2.07,0,0,1,1.35-.38,2.66,2.66,0,0,1,.3-1.2,2.29,2.29,0,0,1,2.27-1.21,2.79,2.79,0,0,0-1.51.38,6,6,0,0,0-1.06.83c-.3.3-.6.58-.9.83a2.1,2.1,0,0,1-1.36.37,2.1,2.1,0,0,0-1.51.46,6,6,0,0,0-.75.9,2.7,2.7,0,0,0-.3,1.21A2.78,2.78,0,0,0,859.65,505.05Zm1.06-7.16a7.14,7.14,0,0,1,1.81-1.36q.9-.45,2-.9l2.63-1.06c1-.4,2.12-.9,3.32-1.51l2.26-2.41h-2.26c-1.31,1.21-2.56,2.34-3.77,3.39a5.65,5.65,0,0,1-3.77,1.59,1.78,1.78,0,0,0-1.28.37,6,6,0,0,0-.68.83A2.49,2.49,0,0,0,860.71,497.89Zm0,19.6v2.56a14.42,14.42,0,0,1,1.81-1.5,21.67,21.67,0,0,1,2.19-1.59,25.89,25.89,0,0,1,3.24-1.73h-7.24ZM863,490.65a7.34,7.34,0,0,1,3.77-2.26,23,23,0,0,1,3.77-.3v-2.26h2.26a12.48,12.48,0,0,0-4.75,1.43A17.49,17.49,0,0,0,863,490.65Zm0,76.15a4.06,4.06,0,0,0,1.51-.3c.5-.2,1.06-.46,1.66-.76a5.9,5.9,0,0,0,1.81-1.51,3.92,3.92,0,0,0-1.81.46c-.6.3-1.16.6-1.66.9Zm5-56.55a2.7,2.7,0,0,0-1.21.3,2.18,2.18,0,0,0-1.2,2.12l5-5a3,3,0,0,1-.3,1.36A2.29,2.29,0,0,1,868,510.25Zm-2.41,12.22A2.36,2.36,0,0,0,868,521a11.2,11.2,0,0,1,2.56-3.47Zm5-24.58a2.11,2.11,0,0,0-1.51.45,5.56,5.56,0,0,0-.75.91,2.66,2.66,0,0,0-.3,1.2,2.46,2.46,0,0,1,1.88-2.56,55.41,55.41,0,0,0,5.51-2.26h2.41a2.7,2.7,0,0,1,.3-1.21,6,6,0,0,1,.75-.9,2.07,2.07,0,0,1,1.51-.46,11.68,11.68,0,0,0-5.95,1.29,7.92,7.92,0,0,1-3.85,1.28Zm4.83,24.58a6.77,6.77,0,0,0-2.19.45,13,13,0,0,0-2.41,1.13,9.87,9.87,0,0,0-2,1.51,2.42,2.42,0,0,0-.83,1.73l2.71-1.51,2.41-1.5A13.36,13.36,0,0,0,875.34,522.47Zm-2.57-19.61a6.74,6.74,0,0,0,2.57-.3,13.81,13.81,0,0,0,2.41-2.11h2.56a13.14,13.14,0,0,0,1.36-1.51,9.79,9.79,0,0,1,.9-1.05,12.74,12.74,0,0,1,1.06-.91,16.07,16.07,0,0,0,1.51-1.35,8.12,8.12,0,0,1-3.7,2,21.63,21.63,0,0,1-3.69.3,2.45,2.45,0,0,1-1.51,2.56A12.28,12.28,0,0,0,872.77,502.86Zm2.57,27-2.57,2.41A4.57,4.57,0,0,0,875,532,4,4,0,0,0,875.34,529.86Zm0-17.19a10.15,10.15,0,0,1,3.39-2.42,2.45,2.45,0,0,0,1.58-2.56Zm5,2.56h-2.56a21.63,21.63,0,0,0,3.69-.3,7.34,7.34,0,0,0,3.7-2.26l2.41-2.42a6,6,0,0,0-3.69,1.51A25.77,25.77,0,0,0,880.31,515.23Zm-2.56,53.83a64.84,64.84,0,0,0,6.71-3.54q3.09-1.89,3.09-3.7l-2.41,2.41c-.61.61-1.11,1.09-1.51,1.44a5,5,0,0,1-1.06.75,3.18,3.18,0,0,1-.9.3,8.84,8.84,0,0,1-1.36.08Zm2.56-81a7,7,0,0,0,3.55-1.13,7.06,7.06,0,0,1,3.69-1.13q2-2,3.69-3.85t3.7-3.69a2.16,2.16,0,0,0,2.11-1.21,2.67,2.67,0,0,0,.3-1.21h-2.41a17,17,0,0,1-.3,3.32c-.21,1-1,1.51-2.26,1.51a7.66,7.66,0,0,1-3.85,2.56,33.79,33.79,0,0,0-6,2.57,1.78,1.78,0,0,1-.37,1.28,5.47,5.47,0,0,1-.83.68A2.45,2.45,0,0,1,880.31,488.09Zm0,34.38h2.26a3.59,3.59,0,0,0-2,.3,4.49,4.49,0,0,0-.3,2.26Zm2.26,9.8a2.16,2.16,0,0,1,1.21-2.11,3,3,0,0,1,1.36-.3,2.79,2.79,0,0,0-1.51.37,6.38,6.38,0,0,0-1.06.83c-.3.3-.6.58-.9.83a2.08,2.08,0,0,1-1.36.38Zm0-51.57c.61-.6,1.11-1.08,1.51-1.43s.76-.68,1.06-1l1-1,1.43-1.44-1.43,1.44-1,1c-.3.3-.66.63-1.06,1S883.18,480.1,882.57,480.7Zm7.54,95.9c-2.51,0-4,.48-4.37,1.43a8.78,8.78,0,0,0-.6,3.39,6.37,6.37,0,0,0,4-1.88q2.19-1.89,5.81-5.5a4,4,0,0,0-1.51.3,13.47,13.47,0,0,0-1.66.83A6.49,6.49,0,0,0,890.11,576.6Zm22-73.74v-2.41a4,4,0,0,1-2.11-.3c-.21-.2-.3-.95-.3-2.26H907.3a7.21,7.21,0,0,1-3.84,2.26,22.65,22.65,0,0,1-3.54.3h-2.57v-2.56a6.08,6.08,0,0,1-1.81,1.51c-.6.3-1.15.55-1.66.75a4,4,0,0,1-1.5.3,9.13,9.13,0,0,1-1.36-.07,3.07,3.07,0,0,1-.91-.31,5.25,5.25,0,0,1-1.05-.75c-.4-.35-.91-.83-1.51-1.43l2.56-2.26,2.27,2.26c.9-.5,1.9-1.11,3-1.81.91-.6,2-1.33,3.17-2.19a23.42,23.42,0,0,0,3.62-3.24c1.3-1.3,3.09-3,5.35-5a38,38,0,0,1,7-5c1.31-1.21,2.56-2.31,3.77-3.32a5.7,5.7,0,0,1,3.62-1.51,2.75,2.75,0,0,1,1.21.31,2.15,2.15,0,0,1,1.2,2.11v5a2.11,2.11,0,0,1,1.43.45,4.53,4.53,0,0,1,.83.91,2.69,2.69,0,0,1,.31,1.21v4.82a2.72,2.72,0,0,1-.31,1.21,2.28,2.28,0,0,1-2.26,1.2v4.83h-2.41v2.56a6.27,6.27,0,0,0-2.41.3,14.3,14.3,0,0,0-2.42,2.11h-5Zm-24.58-12.21a4.1,4.1,0,0,0,1.51-.3,14.79,14.79,0,0,0,1.58-.75,6.91,6.91,0,0,0,1.74-1.51,13.78,13.78,0,0,0,1.5-1.06,13.52,13.52,0,0,1,1.66-.83,4.73,4.73,0,0,1,1.81-.37,7.09,7.09,0,0,0-3.69,1.13,7,7,0,0,1-3.55,1.13Zm0,26.84a2,2,0,0,1,1.21-2,3,3,0,0,1,1.35-.3l2.27-2.56a2.41,2.41,0,0,0-1.51.6,6.7,6.7,0,0,0-1.59,1.43A14.39,14.39,0,0,0,887.55,517.49Zm2.56-21.86q5.43-2,9.35-3.77c2.62-1.21,5.23-2.46,7.84-3.77q5.43-1.66,7.62-3.55a5.22,5.22,0,0,0,2.18-3.84v-2.41h-5a6,6,0,0,1-1.51,3.69c-1,1.26-2.11,2.54-3.32,3.85a24.87,24.87,0,0,1-5.27,3.24,16.37,16.37,0,0,1-7.09,1.58v2.41a3.36,3.36,0,0,0-1.81.46l-1.51.9Zm4.83,41.46a6.06,6.06,0,0,0,3.69-1.43,22.13,22.13,0,0,0,3.55-3.39,3.56,3.56,0,0,0-2,.3c-.21.2-.3,1-.3,2.26a4.54,4.54,0,0,0-2.27.3,3.59,3.59,0,0,0-.3,2Zm0,32h2.41a13.47,13.47,0,0,0,1.51-1.06c.5-.3,1-.57,1.58-.83a4.15,4.15,0,0,1,1.74-.37h2.56a21.54,21.54,0,0,0-3.69.3,8.12,8.12,0,0,0-3.7,2Zm5-53.83v-2.56h-2.57v2.56Zm-2.57,9.8c0-1.31.53-2.06,1.58-2.26a17.46,17.46,0,0,1,3.25-.3,4,4,0,0,1,.3-2.11,4.44,4.44,0,0,1,2.26-.31h-2.56a2.42,2.42,0,0,0-1.51.61,5.91,5.91,0,0,0-1.58,1.51A16.05,16.05,0,0,0,897.35,525Zm2.57-44.33h2.26l5.12-4.83a4.5,4.5,0,0,0-1.66.31q-.75.3-1.65.75a6.76,6.76,0,0,0-1.81,1.36,2.66,2.66,0,0,1-.3,1.2A2,2,0,0,1,899.92,480.7Zm0,14.93v2.26a6,6,0,0,0,3.54-1.43,38.29,38.29,0,0,0,3.84-3.4,6.73,6.73,0,0,0-3.84,1.29A6.43,6.43,0,0,1,899.92,495.63Zm2.26,44,2.56-2.57h2.56a2.07,2.07,0,0,1,.38-1.35,11.58,11.58,0,0,1,.83-.91,5.91,5.91,0,0,0,.83-1.05,2.82,2.82,0,0,0,.38-1.51,28.08,28.08,0,0,1-3.7,3.39,6.28,6.28,0,0,1-3.84,1.43l-2.26,2.57v2.56a2.61,2.61,0,0,1,.3-1.21,8.86,8.86,0,0,1,.68-.9A1.56,1.56,0,0,1,902.18,539.66Zm0,32a1.88,1.88,0,0,0,2.56-2.56,2.1,2.1,0,0,1-.45,1.51,6,6,0,0,1-.91.75A2.66,2.66,0,0,1,902.18,571.62Zm5.12-29.4h-2.56a4.7,4.7,0,0,0,1.81-.38,13.52,13.52,0,0,0,1.66-.83,20.14,20.14,0,0,0,1.51-1.35,1.84,1.84,0,0,0-1.36.45,6.73,6.73,0,0,0-.76.9A2.73,2.73,0,0,0,907.3,542.22ZM909.72,557a11.11,11.11,0,0,1-3.4,2.26,2.46,2.46,0,0,0-1.58,2.56,2.82,2.82,0,0,0,1.51-.37,4.59,4.59,0,0,0,1-.91,5.51,5.51,0,0,1,1-.9,2.44,2.44,0,0,1,1.44-.38A11.27,11.27,0,0,1,913,557a2.47,2.47,0,0,0,1.51-2.57,53,53,0,0,0,6.18-3.39,11.13,11.13,0,0,1,6.19-1.58h2.41v-4.83h-2.41q-2,0-6.79,3.32A70.7,70.7,0,0,0,909.72,557Zm0-7.54a3,3,0,0,1-.31,1.35A2.15,2.15,0,0,1,907.3,552h-2.56v2.41l1.51-1.5c.5-.51,1-1,1.66-1.59A23.44,23.44,0,0,0,909.72,549.46Zm-5,27.14c0-1.31.53-2.06,1.58-2.26a18.31,18.31,0,0,1,3.4-.3v-2.42a1.86,1.86,0,0,1-1.51,2.11,17.13,17.13,0,0,1-3.47.31Zm5-32-2.42,2.26,2.42-2.26h2.41l2.41-2.41a4.1,4.1,0,0,0-1.51.3,13.22,13.22,0,0,0-1.58.76A7.79,7.79,0,0,0,909.72,544.63Zm0-14.77c2.41-1.31,4.64-2.54,6.71-3.7s3.09-2.39,3.09-3.69H917.1a1.88,1.88,0,0,1-2.56,2.56,1.78,1.78,0,0,1-.38,1.28,5,5,0,0,1-.83.68,2.66,2.66,0,0,1-1.2.3Zm2.41,32-2.41,2.41h2.41a2.66,2.66,0,0,1,.3-1.2,2.16,2.16,0,0,1,2.11-1.21Zm0-76h2.41c1.31,0,2.06-.1,2.26-.31a4.49,4.49,0,0,0,.3-2.26,4,4,0,0,0,1.51-.3,15.87,15.87,0,0,0,1.59-.75,6.54,6.54,0,0,0,1.73-1.51,6.72,6.72,0,0,0-3.92,1.58A43.82,43.82,0,0,1,912.13,485.83Zm2.41,36.64v-2.42l-2.41,2.42Zm2.19-33.33c.85-.4,1.66-.75,2.41-1.05a18.42,18.42,0,0,0,2-.91,1.46,1.46,0,0,0,.83-1.35,2.46,2.46,0,0,0-2.41,1.13,2.5,2.5,0,0,1-2.42,1.13l-2.56,2.56A7.81,7.81,0,0,1,916.73,489.14Zm.37,43.13a13.36,13.36,0,0,1,2.42-2.11,6.27,6.27,0,0,1,2.41-.3,6.27,6.27,0,0,0-2.41.3A13.36,13.36,0,0,0,917.1,532.27Zm4.83,2.56h-2.41a6.29,6.29,0,0,0,3.62-1.28,6.44,6.44,0,0,1,3.77-1.28,2.15,2.15,0,0,1,1.2-2.11,2.7,2.7,0,0,1,1.21-.3,6,6,0,0,0-3.7,1.5A35.86,35.86,0,0,0,921.93,534.83Zm0,4.83a2.62,2.62,0,0,0,1.21-.31,2.28,2.28,0,0,0,1.2-2.26h2.57a4.42,4.42,0,0,0-1.66.3A9.3,9.3,0,0,0,921.93,539.66Zm0,19.6a6.12,6.12,0,0,0,3.69-1.43,28.9,28.9,0,0,0,3.7-3.4,8.81,8.81,0,0,1-3.7,2.57A10,10,0,0,0,921.93,559.26Z" transform="translate(-729 -272.76)"/></g></svg>