<svg id="Livello_1" data-name="Livello 1" xmlns="http://www.w3.org/2000/svg" xmlns:xlink="http://www.w3.org/1999/xlink" viewBox="0 0 41.6 41.6"><defs><style>.cls-1,.cls-4{fill:none;}.cls-2,.cls-5{fill:#fff;}.cls-2{opacity:0.33;}.cls-3{clip-path:url(#clip-path);}.cls-4{stroke:#fff;stroke-linecap:round;stroke-miterlimit:10;stroke-width:1.6px;}</style><clipPath id="clip-path" transform="translate(-479 -479.4)"><rect class="cls-1" x="479" y="479" width="42" height="42.96"/></clipPath></defs><title>arrow</title><path class="cls-2" d="M519.8,500.2a20,20,0,1,1-20-20,20,20,0,0,1,20,20Zm0,0" transform="translate(-479 -479.4)"/><g class="cls-3"><path class="cls-4" d="M519.8,500.2a20,20,0,1,1-20-20,20,20,0,0,1,20,20Zm0,0" transform="translate(-479 -479.4)"/></g><path class="cls-5" d="M503.8,507.4l-12-7.34,12-6.93C504.73,494.36,503.87,502.39,503.8,507.4Zm0,0" transform="translate(-479 -479.4)"/><path class="cls-4" d="M503.88,506.05a.88.88,0,0,1-1.28.74c-3-1.56-10.8-5.65-10.8-6.73,0-1.34,11.12-7.58,12-6.93C504.51,493.66,504.08,502.6,503.88,506.05Zm-.08,1.35" transform="translate(-479 -479.4)"/></svg>